<svg height="40px" viewBox="0 0 77 39" version="1.1"><g id="Logo" fill="#FFF"><path d="M73.8479012,32.6797531 C73.3567901,32.6797531 72.9649383,32.8397531 72.6728395,33.1597531 C72.3807407,33.48 72.208642,33.922716 72.1565432,34.4883951 L75.3550617,34.4883951 C75.3550617,33.9041975 75.2246914,33.4565432 74.9641975,33.1459259 C74.7039506,32.8353086 74.3316049,32.6797531 73.8479012,32.6797531 M74.0992593,38.2451852 C73.1948148,38.2451852 72.4812346,37.9698765 71.9585185,37.4190123 C71.4353086,36.8683951 71.1740741,36.1034568 71.1740741,35.1246914 C71.1740741,34.1387654 71.4167901,33.3553086 71.9024691,32.7748148 C72.3881481,32.1940741 73.0402469,31.9039506 73.8590123,31.9039506 C74.625679,31.9039506 75.2320988,32.1560494 75.6787654,32.6602469 C76.1254321,33.1646914 76.348642,33.8296296 76.348642,34.6560494 L76.348642,35.2419753 L72.134321,35.2419753 C72.1528395,35.9602469 72.3340741,36.5054321 72.6785185,36.8775309 C73.022716,37.2498765 73.5074074,37.4358025 74.1325926,37.4358025 C74.7911111,37.4358025 75.4424691,37.2980247 76.0861728,37.022716 L76.0861728,37.8488889 C75.7587654,37.9903704 75.4488889,38.0916049 75.157037,38.1530864 C74.8646914,38.2145679 74.5120988,38.2451852 74.0992593,38.2451852" id="Shape"></path><path d="M69.6390123,31.9041975 C69.9108642,31.9041975 70.1545679,31.9264198 70.3703704,31.9711111 L70.2419753,32.8308642 C69.9888889,32.7748148 69.765679,32.7469136 69.5720988,32.7469136 C69.077284,32.7469136 68.6538272,32.9481481 68.3022222,33.3496296 C67.9506173,33.7516049 67.7745679,34.2523457 67.7745679,34.8516049 L67.7745679,38.1335802 L66.8479012,38.1335802 L66.8479012,32.0158025 L67.6128395,32.0158025 L67.7190123,33.1488889 L67.7634568,33.1488889 C67.9903704,32.7508642 68.2641975,32.4439506 68.5841975,32.2279012 C68.9039506,32.0120988 69.2558025,31.9041975 69.6390123,31.9041975" id="Path"></path><path d="M60.7022222,32.0158025 L60.7022222,35.9844444 C60.7022222,36.4834568 60.8155556,36.8555556 61.042716,37.1009877 C61.2696296,37.3466667 61.6249383,37.4693827 62.1088889,37.4693827 C62.7488889,37.4693827 63.217037,37.2945679 63.5128395,36.9446914 C63.808642,36.5950617 63.9565432,36.0234568 63.9565432,35.2308642 L63.9565432,32.0158025 L64.8832099,32.0158025 L64.8832099,38.1335802 L64.1185185,38.1335802 L63.9844444,37.3130864 L63.934321,37.3130864 C63.7444444,37.6145679 63.4812346,37.8451852 63.1444444,38.0054321 C62.8074074,38.1651852 62.4234568,38.2451852 61.9916049,38.2451852 C61.2474074,38.2451852 60.6901235,38.068642 60.3197531,37.7150617 C59.9493827,37.3614815 59.7644444,36.7958025 59.7644444,36.0180247 L59.7644444,32.0158025 L60.7022222,32.0158025 Z" id="Path"></path><path d="M57.7718519,37.4804938 C57.9353086,37.4804938 58.0935802,37.468642 58.2461728,37.4444444 C58.3987654,37.4202469 58.5197531,37.3950617 58.6091358,37.3688889 L58.6091358,38.0777778 C58.5083951,38.1261728 58.3607407,38.1661728 58.1654321,38.1977778 C57.9698765,38.2293827 57.7940741,38.2454321 57.6377778,38.2454321 C56.454321,38.2454321 55.862716,37.6219753 55.862716,36.3753086 L55.862716,32.7358025 L54.9864198,32.7358025 L54.9864198,32.2893827 L55.862716,31.9041975 L56.2535802,30.5980247 L56.7893827,30.5980247 L56.7893827,32.0158025 L58.5644444,32.0158025 L58.5644444,32.7358025 L56.7893827,32.7358025 L56.7893827,36.3362963 C56.7893827,36.7046914 56.8767901,36.9876543 57.0516049,37.1846914 C57.2264198,37.3822222 57.4666667,37.4804938 57.7718519,37.4804938" id="Path"></path><path d="M49.6496296,32.0158025 L49.6496296,35.9844444 C49.6496296,36.4834568 49.762963,36.8555556 49.9901235,37.1009877 C50.217037,37.3466667 50.5723457,37.4693827 51.0562963,37.4693827 C51.6962963,37.4693827 52.1644444,37.2945679 52.4602469,36.9446914 C52.7560494,36.5950617 52.9039506,36.0234568 52.9039506,35.2308642 L52.9039506,32.0158025 L53.8306173,32.0158025 L53.8306173,38.1335802 L53.0659259,38.1335802 L52.9318519,37.3130864 L52.8817284,37.3130864 C52.6918519,37.6145679 52.428642,37.8451852 52.0918519,38.0054321 C51.7548148,38.1651852 51.3708642,38.2451852 50.9390123,38.2451852 C50.1948148,38.2451852 49.6375309,38.068642 49.2671605,37.7150617 C48.8967901,37.3614815 48.7118519,36.7958025 48.7118519,36.0180247 L48.7118519,32.0158025 L49.6496296,32.0158025 Z" id="Path"></path><path d="M47.6622222,32.7358025 L46.1049383,32.7358025 L46.1049383,38.1335802 L45.1782716,38.1335802 L45.1782716,32.7358025 L44.0841975,32.7358025 L44.0841975,32.317284 L45.1782716,31.9822222 L45.1782716,31.6417284 C45.1782716,30.1382716 45.8350617,29.3866667 47.1488889,29.3866667 C47.4723457,29.3866667 47.8523457,29.4516049 48.2874074,29.5819753 L48.0476543,30.3241975 C47.6901235,30.2091358 47.3851852,30.151358 47.1320988,30.151358 C46.7822222,30.151358 46.5237037,30.2676543 46.3560494,30.5 C46.188642,30.7328395 46.1049383,31.105679 46.1049383,31.6195062 L46.1049383,32.0158025 L47.6622222,32.0158025 L47.6622222,32.7358025 Z" id="Path"></path><path d="M37.854321,32.6797531 C37.3634568,32.6797531 36.971358,32.8397531 36.6795062,33.1597531 C36.3874074,33.48 36.2150617,33.922716 36.162963,34.4883951 L39.3617284,34.4883951 C39.3617284,33.9041975 39.2311111,33.4565432 38.9706173,33.1459259 C38.7103704,32.8353086 38.3380247,32.6797531 37.854321,32.6797531 M38.105679,38.2451852 C37.2012346,38.2451852 36.4876543,37.9698765 35.9649383,37.4190123 C35.4419753,36.8683951 35.1804938,36.1034568 35.1804938,35.1246914 C35.1804938,34.1387654 35.4234568,33.3553086 35.9088889,32.7748148 C36.3945679,32.1940741 37.0469136,31.9039506 37.8654321,31.9039506 C38.6320988,31.9039506 39.2387654,32.1560494 39.6854321,32.6602469 C40.1320988,33.1646914 40.3553086,33.8296296 40.3553086,34.6560494 L40.3553086,35.2419753 L36.1409877,35.2419753 C36.1592593,35.9602469 36.3404938,36.5054321 36.6849383,36.8775309 C37.0291358,37.2498765 37.5138272,37.4358025 38.1392593,37.4358025 C38.7975309,37.4358025 39.4491358,37.2980247 40.0928395,37.022716 L40.0928395,37.8488889 C39.7654321,37.9903704 39.4553086,38.0916049 39.1637037,38.1530864 C38.871358,38.2145679 38.5187654,38.2451852 38.105679,38.2451852" id="Shape"></path><path d="M32.6911111,38.1335802 L32.6911111,34.1760494 C32.6911111,33.677284 32.5775309,33.3049383 32.3506173,33.0595062 C32.1234568,32.8138272 31.7681481,32.6911111 31.2844444,32.6911111 C30.6404938,32.6911111 30.1706173,32.8659259 29.8748148,33.2158025 C29.5790123,33.565679 29.4311111,34.1387654 29.4311111,34.9350617 L29.4311111,38.1335802 L28.5044444,38.1335802 L28.5044444,29.4479012 L29.4311111,29.4479012 L29.4311111,32.077037 C29.4311111,32.3933333 29.4162963,32.6555556 29.3864198,32.8639506 L29.4422222,32.8639506 C29.6246914,32.5701235 29.8841975,32.3385185 30.2209877,32.1691358 C30.5577778,31.9997531 30.9419753,31.9150617 31.3738272,31.9150617 C32.1217284,31.9150617 32.682716,32.0928395 33.0565432,32.4483951 C33.4308642,32.8037037 33.6177778,33.3683951 33.6177778,34.1424691 L33.6177778,38.1335802 L32.6911111,38.1335802 Z" id="Path"></path><path d="M26.4449383,37.4804938 C26.608642,37.4804938 26.7666667,37.468642 26.9192593,37.4444444 C27.0720988,37.4202469 27.1928395,37.3950617 27.2822222,37.3688889 L27.2822222,38.0777778 C27.1817284,38.1261728 27.0338272,38.1661728 26.8385185,38.1977778 C26.6432099,38.2293827 26.4671605,38.2454321 26.3111111,38.2454321 C25.1276543,38.2454321 24.5358025,37.6219753 24.5358025,36.3753086 L24.5358025,32.7358025 L23.6595062,32.7358025 L23.6595062,32.2893827 L24.5358025,31.9041975 L24.9266667,30.5980247 L25.4624691,30.5980247 L25.4624691,32.0158025 L27.2375309,32.0158025 L27.2375309,32.7358025 L25.4624691,32.7358025 L25.4624691,36.3362963 C25.4624691,36.7046914 25.5498765,36.9876543 25.7246914,37.1846914 C25.8997531,37.3822222 26.1397531,37.4804938 26.4449383,37.4804938" id="Path"></path><polygon id="Path" points="19.534321 38.1335802 18.6076543 38.1335802 18.6076543 29.4479012 19.534321 29.4479012"></polygon><path d="M14.5271605,32.6797531 C14.0360494,32.6797531 13.6441975,32.8397531 13.3520988,33.1597531 C13.06,33.48 12.8879012,33.922716 12.8358025,34.4883951 L16.034321,34.4883951 C16.034321,33.9041975 15.9039506,33.4565432 15.6434568,33.1459259 C15.382963,32.8353086 15.0108642,32.6797531 14.5271605,32.6797531 M14.7785185,38.2451852 C13.8740741,38.2451852 13.1604938,37.9698765 12.6377778,37.4190123 C12.1148148,36.8683951 11.8533333,36.1034568 11.8533333,35.1246914 C11.8533333,34.1387654 12.0962963,33.3553086 12.5819753,32.7748148 C13.0674074,32.1940741 13.7195062,31.9039506 14.5382716,31.9039506 C15.3049383,31.9039506 15.9116049,32.1560494 16.3582716,32.6602469 C16.8046914,33.1646914 17.0279012,33.8296296 17.0279012,34.6560494 L17.0279012,35.2419753 L12.8135802,35.2419753 C12.8320988,35.9602469 13.0135802,36.5054321 13.3577778,36.8775309 C13.7019753,37.2498765 14.1866667,37.4358025 14.8118519,37.4358025 C15.4706173,37.4358025 16.1217284,37.2980247 16.7654321,37.022716 L16.7654321,37.8488889 C16.4380247,37.9903704 16.1281481,38.0916049 15.8362963,38.1530864 C15.5439506,38.2145679 15.191358,38.2451852 14.7785185,38.2451852" id="Shape"></path><path d="M8.11308642,32.6797531 C7.62197531,32.6797531 7.23012346,32.8397531 6.93802469,33.1597531 C6.64592593,33.48 6.47382716,33.922716 6.4217284,34.4883951 L9.62024691,34.4883951 C9.62024691,33.9041975 9.48987654,33.4565432 9.22938272,33.1459259 C8.96888889,32.8353086 8.59679012,32.6797531 8.11308642,32.6797531 M8.36444444,38.2451852 C7.46,38.2451852 6.74641975,37.9698765 6.2237037,37.4190123 C5.70074074,36.8683951 5.43925926,36.1034568 5.43925926,35.1246914 C5.43925926,34.1387654 5.68222222,33.3553086 6.16790123,32.7748148 C6.65333333,32.1940741 7.3054321,31.9039506 8.12419753,31.9039506 C8.8908642,31.9039506 9.49753086,32.1560494 9.94419753,32.6602469 C10.3906173,33.1646914 10.6138272,33.8296296 10.6138272,34.6560494 L10.6138272,35.2419753 L6.39950617,35.2419753 C6.41802469,35.9602469 6.59950617,36.5054321 6.9437037,36.8775309 C7.28790123,37.2498765 7.77259259,37.4358025 8.39777778,37.4358025 C9.05654321,37.4358025 9.70765432,37.2980247 10.351358,37.022716 L10.351358,37.8488889 C10.0239506,37.9903704 9.71407407,38.0916049 9.42222222,38.1530864 C9.12987654,38.2145679 8.77728395,38.2451852 8.36444444,38.2451852" id="Shape"></path><polygon id="Path" points="0.968148148 38.1335802 0.0192592593 38.1335802 0.0192592593 29.9725926 4.56864198 29.9725926 4.56864198 30.8153086 0.968148148 30.8153086 0.968148148 33.8019753 4.3508642 33.8019753 4.3508642 34.6446914 0.968148148 34.6446914"></polygon><path d="M64.3876543,18.3817284 C64.3876543,17.8409877 64.6441975,17.5703704 65.157284,17.5703704 L66.5362963,17.5703704 C66.814321,17.5703704 67.0093827,17.6224691 67.1217284,17.7264198 C67.2338272,17.8306173 67.3222222,18.0592593 67.3864198,18.4130864 C67.8032099,20.9407407 69.2249383,22.2046914 71.6518519,22.2046914 C72.2614815,22.2046914 72.8328395,22.1320988 73.3676543,21.9864198 C73.9022222,21.8409877 74.3165432,21.6795062 74.6106173,21.502716 C74.9041975,21.3259259 75.1767901,21.1646914 75.4283951,21.0190123 C75.6792593,20.8733333 75.8639506,20.8004938 75.9817284,20.8004938 C76.2274074,20.8004938 76.3503704,20.9306173 76.3503704,21.1906173 C76.3503704,21.4091358 76.2274074,21.6898765 75.9817284,22.0330864 C75.7355556,22.3765432 75.385679,22.7328395 74.931358,23.1019753 C74.4767901,23.471358 73.8511111,23.788642 73.0553086,24.0540741 C72.2585185,24.3192593 71.3953086,24.4518519 70.4651852,24.4518519 C68.5407407,24.4518519 67.0469136,23.8876543 65.9832099,22.7590123 C64.9192593,21.6301235 64.3876543,20.1711111 64.3876543,18.3817284 M67.3864198,14.0281481 C67.3864198,14.3195062 67.4797531,14.5041975 67.6669136,14.5819753 C67.8538272,14.6602469 68.1291358,14.6992593 68.4928395,14.6992593 C69.422963,14.6992593 70.2192593,14.6212346 70.8822222,14.4651852 C71.5449383,14.3091358 72.0528395,14.0906173 72.405679,13.8096296 C72.7582716,13.5288889 73.0123457,13.2323457 73.1671605,12.9202469 C73.3222222,12.6081481 73.3997531,12.2649383 73.3997531,11.8903704 C73.3997531,11.2454321 73.1696296,10.7279012 72.7103704,10.3377778 C72.2506173,9.94765432 71.5128395,9.75259259 70.497284,9.75259259 C68.9041975,9.75259259 67.4074074,10.2417284 66.0074074,11.2192593 C65.5901235,11.5212346 65.3281481,11.6718519 65.2214815,11.6718519 C65.0395062,11.6718519 64.948642,11.5730864 64.948642,11.3753086 C64.948642,11.1155556 65.1034568,10.7980247 65.4138272,10.4237037 C65.9911111,9.70567901 66.648642,9.11802469 67.3864198,8.66024691 C68.1239506,8.20246914 68.797037,7.89555556 69.4066667,7.73950617 C70.0162963,7.5837037 70.6197531,7.5054321 71.2190123,7.5054321 C71.988642,7.5054321 72.6834568,7.5837037 73.3034568,7.73950617 C73.9232099,7.89555556 74.474321,8.13753086 74.9553086,8.46518519 C75.4365432,8.79283951 75.8106173,9.24049383 76.0780247,9.80716049 C76.3446914,10.374321 76.4787654,11.0375309 76.4787654,11.7967901 C76.4787654,13.4195062 75.6849383,14.6706173 74.097284,15.5496296 C72.5098765,16.4288889 70.3419753,16.8681481 67.5948148,16.8681481 C66.8249383,16.8681481 65.9535802,16.8266667 64.9807407,16.7432099 C64.4997531,16.7120988 64.2590123,16.4834568 64.2590123,16.0567901 C64.2590123,14.9019753 64.4301235,14.0358025 64.7725926,13.4587654 C65.114321,12.8812346 65.5580247,12.4365432 66.1034568,12.1244444 C66.6377778,11.822963 67.0441975,11.6718519 67.3222222,11.6718519 C67.5787654,11.6718519 67.7069136,11.8279012 67.7069136,12.14 C67.7069136,12.2649383 67.6535802,12.5691358 67.5466667,13.0528395 C67.4395062,13.5365432 67.3864198,13.8617284 67.3864198,14.0281481" id="Shape"></path><path d="M57.9249383,23.4530864 L57.9249383,1.95037037 C57.9249383,1.38864198 58.1869136,0.923209877 58.7108642,0.55382716 C59.2345679,0.184691358 59.7476543,0 60.2501235,0 C60.6244444,0 60.811358,0.223703704 60.811358,0.670617284 L60.811358,22.1735802 C60.811358,22.7459259 60.5493827,23.2138272 60.025679,23.5780247 C59.5017284,23.9422222 58.988642,24.1241975 58.4861728,24.1241975 C58.1118519,24.1241975 57.9249383,23.9004938 57.9249383,23.4530864" id="Path"></path><path d="M47.3728395,7.5054321 C49.8103704,7.5054321 51.6037037,8.20518519 52.7530864,9.60419753 C53.9022222,11.0034568 54.4767901,13.0661728 54.4767901,15.7916049 C54.4767901,16.6340741 54.3671605,17.5367901 54.1481481,18.4987654 C53.9291358,19.4612346 53.6325926,20.3167901 53.2582716,21.065679 C52.8518519,21.8562963 52.3548148,22.5274074 51.7669136,23.0785185 C51.1787654,23.6303704 50.702963,23.905679 50.3397531,23.905679 C50.1150617,23.905679 50.002716,23.8069136 50.002716,23.6093827 C50.002716,23.5469136 50.0402469,23.4637037 50.1150617,23.3595062 C50.1896296,23.2555556 50.291358,23.097037 50.4197531,22.8834568 C50.5479012,22.6706173 50.6602469,22.4232099 50.7565432,22.1422222 C51.1948148,20.9775309 51.4140741,19.328642 51.4140741,17.1958025 C51.4140741,16.0202469 51.3311111,14.9982716 51.1654321,14.1296296 C50.9995062,13.2612346 50.7269136,12.488642 50.3476543,11.8120988 C49.9681481,11.1360494 49.4417284,10.6239506 48.7679012,10.2753086 C48.0945679,9.92691358 47.271358,9.75259259 46.2985185,9.75259259 C44.951358,9.75259259 43.5614815,10.2311111 42.1291358,11.1881481 C42.0755556,11.2298765 41.9953086,11.2844444 41.888642,11.3518519 C41.7814815,11.4197531 41.6987654,11.474321 41.64,11.5158025 C41.5812346,11.5575309 41.5197531,11.5938272 41.4555556,11.6251852 C41.391358,11.6562963 41.3380247,11.6718519 41.2953086,11.6718519 C41.1454321,11.6718519 41.0708642,11.5837037 41.0708642,11.4066667 C41.0708642,11.2923457 41.1323457,11.125679 41.2553086,10.9071605 C41.3780247,10.6888889 41.4822222,10.5276543 41.5679012,10.4234568 C43.128642,8.4782716 45.0637037,7.5054321 47.3728395,7.5054321 M43.46,15.3545679 C43.46,16.082716 43.4762963,16.7071605 43.5083951,17.2269136 C43.5404938,17.7471605 43.6017284,18.2881481 43.6928395,18.8498765 C43.7834568,19.4116049 43.9222222,19.8797531 44.1096296,20.254321 C44.2965432,20.628642 44.5318519,20.9720988 44.8153086,21.2841975 C45.0982716,21.5960494 45.4590123,21.8279012 45.8975309,21.9785185 C46.3358025,22.1296296 46.8491358,22.2046914 47.437037,22.2046914 C47.9395062,22.2046914 48.3804938,22.137284 48.76,22.0019753 C49.1392593,21.8669136 49.3558025,21.7992593 49.4096296,21.7992593 C49.6340741,21.7992593 49.7461728,21.9138272 49.7461728,22.1422222 C49.7461728,22.6106173 49.4014815,23.1125926 48.7120988,23.6481481 C48.0224691,24.1839506 47.1750617,24.4518519 46.1703704,24.4518519 C45.24,24.4518519 44.4303704,24.3007407 43.7407407,23.9992593 C43.0511111,23.6977778 42.4980247,23.302716 42.0809877,22.8133333 C41.6641975,22.3246914 41.3296296,21.7108642 41.0787654,20.9720988 C40.8274074,20.2335802 40.6592593,19.4896296 40.5735802,18.7407407 C40.4879012,17.9916049 40.4451852,17.1439506 40.4451852,16.197037 C40.4451852,15.6666667 40.4987654,15.1074074 40.605679,14.5195062 C40.7123457,13.9318519 40.8565432,13.4819753 41.0387654,13.1698765 C41.2632099,12.7953086 41.6239506,12.4520988 42.1209877,12.14 C42.6182716,11.8279012 43.0432099,11.6718519 43.3960494,11.6718519 C43.6632099,11.6718519 43.797037,11.8279012 43.797037,12.14 C43.797037,12.1920988 43.7407407,12.5925926 43.6283951,13.3414815 C43.5162963,14.0906173 43.46,14.7614815 43.46,15.3545679" id="Shape"></path><path d="M24.8582716,23.4530864 L24.8582716,15.0580247 C24.8582716,14.4755556 25.0024691,14.0281481 25.291358,13.7160494 C25.58,13.3938272 25.9219753,13.1051852 26.3175309,12.8501235 C26.7130864,12.5950617 27.0232099,12.4676543 27.2476543,12.4676543 C27.5790123,12.4676543 27.7446914,12.6916049 27.7446914,13.1387654 L27.7446914,22.0177778 C27.7446914,22.485679 27.648642,22.8395062 27.4560494,23.0785185 C27.188642,23.3908642 26.862716,23.6432099 26.4780247,23.8355556 C26.0930864,24.0279012 25.7402469,24.1241975 25.4195062,24.1241975 C25.0451852,24.1241975 24.8582716,23.9004938 24.8582716,23.4530864 M15.5893827,23.4530864 L15.5893827,15.0580247 C15.5893827,14.4651852 15.7335802,14.0177778 16.0224691,13.7160494 C16.3214815,13.3832099 16.6637037,13.0918519 17.048642,12.8422222 C17.4335802,12.5925926 17.7434568,12.4676543 17.9787654,12.4676543 C18.3098765,12.4676543 18.4758025,12.6916049 18.4758025,13.1387654 L18.4758025,22.1111111 C18.4758025,22.6730864 18.211358,23.1488889 17.6822222,23.5390123 C17.1528395,23.9291358 16.6422222,24.1241975 16.1506173,24.1241975 C15.7762963,24.1241975 15.5893827,23.9004938 15.5893827,23.4530864 M26.2214815,9.06592593 C26.3496296,9.18049383 26.4565432,9.26888889 26.5419753,9.33135802 C26.6276543,9.39382716 26.7049383,9.43555556 26.7745679,9.45604938 C26.8439506,9.47679012 26.9269136,9.48716049 27.0232099,9.48716049 C27.2797531,9.48716049 27.771358,9.2637037 28.4985185,8.8162963 C29.9096296,7.94246914 31.1496296,7.5054321 32.2190123,7.5054321 C33.8866667,7.5054321 35.1293827,8.01802469 35.9474074,9.04271605 C36.7651852,10.0674074 37.1740741,11.7604938 37.1740741,14.1217284 L37.1740741,22.0177778 C37.1740741,22.5792593 36.9096296,23.0708642 36.3802469,23.4920988 C35.8511111,23.9133333 35.3459259,24.1241975 34.8649383,24.1241975 C34.4906173,24.1241975 34.3034568,23.9004938 34.3034568,23.4530864 L34.3034568,17.2893827 C34.3034568,16.602963 34.2980247,16.0409877 34.2874074,15.6041975 C34.2767901,15.1671605 34.2555556,14.6785185 34.2234568,14.137284 C34.191358,13.5965432 34.1432099,13.1597531 34.0790123,12.8266667 C34.0148148,12.4938272 33.9269136,12.14 33.814321,11.7654321 C33.7022222,11.3908642 33.5604938,11.097284 33.3896296,10.8839506 C33.2182716,10.6706173 33.0125926,10.4679012 32.7720988,10.2753086 C32.5316049,10.082963 32.2481481,9.94765432 31.9222222,9.86938272 C31.5960494,9.79160494 31.2246914,9.75259259 30.8076543,9.75259259 C30.0592593,9.75259259 29.3269136,9.94765432 28.6108642,10.3377778 C27.894321,10.7279012 26.9054321,11.4066667 25.6441975,12.3740741 C25.3125926,12.6135802 25.0720988,12.7330864 24.9224691,12.7330864 C24.7940741,12.7330864 24.6819753,12.6291358 24.585679,12.4207407 C24.542963,12.3271605 24.5,12.2024691 24.457284,12.0464198 C24.2219753,11.2560494 23.9014815,10.6758025 23.4950617,10.3064198 C23.088642,9.93753086 22.4795062,9.75259259 21.6671605,9.75259259 C21.0362963,9.75259259 20.3385185,9.9345679 19.574321,10.2987654 C18.8098765,10.662963 17.8558025,11.2767901 16.7118519,12.14 C16.3592593,12.4 16.097037,12.5301235 15.9261728,12.5301235 C15.7017284,12.5301235 15.5893827,12.3639506 15.5893827,12.0306173 L15.5893827,9.47160494 C15.5893827,8.92049383 15.8565432,8.45506173 16.3911111,8.07506173 C16.925679,7.69555556 17.4387654,7.5054321 17.9306173,7.5054321 C18.3046914,7.5054321 18.4918519,7.7291358 18.4918519,8.17654321 L18.4918519,8.56666667 C18.4918519,8.9308642 18.5720988,9.11283951 18.7323457,9.11283951 C18.8392593,9.11283951 19.0530864,9.01382716 19.3740741,8.8162963 C20.7316049,7.94246914 21.9128395,7.5054321 22.9180247,7.5054321 C23.5165432,7.5054321 24.0217284,7.57851852 24.4333333,7.72395062 C24.8446914,7.86987654 25.4407407,8.31679012 26.2214815,9.06592593" id="Shape"></path><path d="M0.0182716049,23.297037 L0.0182716049,15.6041975 C0.0182716049,15.2296296 0.149135802,14.982716 0.411111111,14.862963 C0.67308642,14.7434568 1.08197531,14.6834568 1.63802469,14.6834568 C2.23654321,14.6834568 2.65358025,14.7434568 2.88864198,14.862963 C3.12395062,14.982716 3.24148148,15.2296296 3.24148148,15.6041975 L3.24148148,20.7693827 C3.24148148,21.1958025 3.46049383,21.4091358 3.89901235,21.4091358 L11.7407407,21.4091358 C12.2002469,21.4091358 12.4303704,21.5703704 12.4303704,21.8928395 C12.4303704,22.0385185 12.3232099,22.3061728 12.1096296,22.6962963 C11.8955556,23.0864198 11.6444444,23.4061728 11.3558025,23.6560494 C11.1098765,23.8641975 10.714321,23.9681481 10.1691358,23.9681481 L0.579506173,23.9681481 C0.205185185,23.9681481 0.0182716049,23.7444444 0.0182716049,23.297037 M0.0182716049,13.1074074 L0.0182716049,6.50666667 C0.0182716049,6.13209877 0.149135802,5.88271605 0.411111111,5.75777778 C0.67308642,5.63283951 1.08197531,5.57061728 1.63802469,5.57061728 C2.23654321,5.57061728 2.65358025,5.63037037 2.88864198,5.75012346 C3.12395062,5.86962963 3.24148148,6.12197531 3.24148148,6.50666667 L3.24148148,10.5483951 C3.24148148,10.9750617 3.46049383,11.1881481 3.89901235,11.1881481 L10.425679,11.1881481 C10.8854321,11.1881481 11.1153086,11.3493827 11.1153086,11.6718519 C11.1153086,11.8177778 11.0083951,12.0802469 10.7945679,12.4597531 C10.5804938,12.8395062 10.3296296,13.1595062 10.0409877,13.4195062 C9.79481481,13.6380247 9.39950617,13.7471605 8.85432099,13.7471605 L0.675802469,13.7471605 C0.237283951,13.7471605 0.0182716049,13.5340741 0.0182716049,13.1074074 M2.77654321,2.07530864 L11.42,2.07530864 C11.8795062,2.07530864 12.1096296,2.23654321 12.1096296,2.55901235 C12.1096296,2.70469136 12.002716,2.96716049 11.7888889,3.34691358 C11.5748148,3.72666667 11.3182716,4.04666667 11.0190123,4.30666667 C10.7730864,4.52518519 10.382963,4.63432099 9.84864198,4.63432099 L0.643703704,4.63432099 C0.48345679,4.63432099 0.365679012,4.62641975 0.290864198,4.6108642 C0.216049383,4.59530864 0.149135802,4.55111111 0.0903703704,4.4782716 C0.0316049383,4.4054321 0.00222222222,4.30148148 0.00222222222,4.16617284 C0.00222222222,3.78148148 0.315061728,3.33654321 0.940246914,2.83185185 C1.56592593,2.32740741 2.17777778,2.07530864 2.77654321,2.07530864" id="Shape"></path></g></svg>