<svg id="svg" version="1.1" xmlns="http://www.w3.org/2000/svg" xmlns:xlink="http://www.w3.org/1999/xlink" width="400" height="400" viewBox="0, 0, 400,400"><g id="svgg"><path id="path0" d="M197.677 179.563 C 197.398 179.917,194.320 185.676,190.837 192.360 C 184.243 205.013,184.004 205.610,185.543 205.596 C 186.360 205.589,186.510 205.335,192.630 193.575 C 199.898 179.609,198.954 181.019,200.978 181.119 L 202.608 181.200 195.148 195.467 C 189.617 206.045,187.753 209.837,187.940 210.133 C 188.150 210.468,189.250 210.545,194.629 210.605 L 201.067 210.676 201.067 213.685 C 201.067 217.467,200.930 217.333,204.800 217.333 C 208.670 217.333,208.533 217.467,208.533 213.680 L 208.533 210.667 210.613 210.667 C 213.330 210.667,213.333 210.662,213.333 207.067 C 213.333 203.471,213.330 203.467,210.613 203.467 L 208.533 203.467 208.533 200.320 C 208.533 196.381,208.683 196.533,204.800 196.533 C 200.918 196.533,201.067 196.383,201.067 200.309 L 201.067 203.444 199.028 203.522 C 194.899 203.680,195.499 205.425,199.723 205.543 C 203.304 205.643,203.200 205.754,203.200 201.834 L 203.200 198.667 204.800 198.667 L 206.400 198.667 206.400 201.813 C 206.400 205.618,206.387 205.600,209.120 205.600 L 211.200 205.600 211.200 207.067 L 211.200 208.533 209.120 208.533 C 206.399 208.533,206.400 208.532,206.400 212.187 L 206.400 215.200 204.800 215.200 L 203.200 215.200 203.200 212.187 C 203.200 208.245,203.710 208.533,196.747 208.533 C 193.549 208.533,190.933 208.458,190.933 208.366 C 190.933 208.275,194.201 201.946,198.194 194.303 C 202.188 186.659,205.458 180.104,205.461 179.736 L 205.467 179.067 201.825 178.993 C 198.252 178.920,198.174 178.931,197.677 179.563 " stroke="none" fill="#fcfaf9" fill-rule="evenodd"></path><path id="path1" d="M116.000 115.333 C 119.151 118.487,121.789 121.067,121.862 121.067 C 121.935 121.067,119.417 118.487,116.267 115.333 C 113.116 112.180,110.478 109.600,110.405 109.600 C 110.331 109.600,112.849 112.180,116.000 115.333 M132.667 132.000 C 134.128 133.467,135.383 134.667,135.457 134.667 C 135.530 134.667,134.394 133.467,132.933 132.000 C 131.472 130.533,130.217 129.333,130.143 129.333 C 130.070 129.333,131.206 130.533,132.667 132.000 M156.267 155.600 C 163.232 162.567,168.991 168.267,169.065 168.267 C 169.138 168.267,163.499 162.567,156.533 155.600 C 149.568 148.633,143.809 142.933,143.735 142.933 C 143.662 142.933,149.301 148.633,156.267 155.600 M192.682 173.208 C 192.398 173.424,191.895 173.600,191.565 173.600 C 191.235 173.600,190.891 173.720,190.800 173.867 C 190.709 174.013,190.455 174.133,190.234 174.133 C 187.044 174.133,175.733 183.890,175.733 186.641 C 175.733 186.802,175.613 186.933,175.467 186.933 C 175.320 186.933,175.200 187.173,175.200 187.467 C 175.200 187.760,175.080 188.000,174.933 188.000 C 174.787 188.000,174.667 188.182,174.667 188.404 C 174.667 188.626,174.547 189.046,174.400 189.337 C 174.253 189.628,174.013 190.105,173.867 190.396 C 173.720 190.688,173.600 191.213,173.600 191.564 C 173.600 191.914,173.420 192.351,173.200 192.533 C 172.863 192.813,172.800 193.983,172.800 200.000 C 172.800 206.017,172.863 207.187,173.200 207.467 C 173.420 207.649,173.600 208.086,173.600 208.436 C 173.600 208.787,173.739 209.342,173.908 209.670 C 174.555 210.922,174.667 211.205,174.667 211.596 C 174.667 211.818,174.787 212.000,174.933 212.000 C 175.080 212.000,175.200 212.240,175.200 212.533 C 175.200 212.827,175.320 213.067,175.467 213.067 C 175.613 213.067,175.733 213.198,175.733 213.359 C 175.733 216.110,187.044 225.867,190.234 225.867 C 190.455 225.867,190.709 225.987,190.800 226.133 C 190.891 226.280,191.235 226.400,191.565 226.400 C 191.895 226.400,192.398 226.576,192.682 226.792 C 193.447 227.370,206.553 227.370,207.318 226.792 C 207.602 226.576,208.105 226.400,208.435 226.400 C 208.765 226.400,209.109 226.280,209.200 226.133 C 209.291 225.987,209.545 225.867,209.766 225.867 C 212.956 225.867,224.267 216.110,224.267 213.359 C 224.267 213.198,224.387 213.067,224.533 213.067 C 224.680 213.067,224.800 212.827,224.800 212.533 C 224.800 212.240,224.920 212.000,225.067 212.000 C 225.213 212.000,225.333 211.818,225.333 211.596 C 225.333 211.374,225.472 210.924,225.642 210.596 C 226.314 209.296,226.400 209.051,226.400 208.436 C 226.400 208.086,226.580 207.649,226.800 207.467 C 227.137 207.187,227.200 206.017,227.200 200.000 C 227.200 193.983,227.137 192.813,226.800 192.533 C 226.580 192.351,226.400 191.914,226.400 191.564 C 226.400 190.949,226.314 190.704,225.642 189.404 C 225.472 189.076,225.333 188.626,225.333 188.404 C 225.333 188.182,225.213 188.000,225.067 188.000 C 224.920 188.000,224.800 187.760,224.800 187.467 C 224.800 187.173,224.680 186.933,224.533 186.933 C 224.387 186.933,224.267 186.802,224.267 186.641 C 224.267 183.890,212.956 174.133,209.766 174.133 C 209.545 174.133,209.291 174.013,209.200 173.867 C 209.109 173.720,208.765 173.600,208.435 173.600 C 208.105 173.600,207.602 173.424,207.318 173.208 C 206.894 172.888,205.566 172.817,200.000 172.817 C 194.434 172.817,193.106 172.888,192.682 173.208 M205.590 179.321 C 205.853 179.638,204.546 182.321,198.489 193.901 C 194.407 201.706,191.027 208.191,190.978 208.313 C 190.929 208.434,193.515 208.533,196.724 208.533 C 203.713 208.533,203.200 208.244,203.200 212.187 L 203.200 215.200 204.800 215.200 L 206.400 215.200 206.400 212.187 C 206.400 208.532,206.399 208.533,209.120 208.533 L 211.200 208.533 211.200 207.067 L 211.200 205.600 209.120 205.600 C 206.387 205.600,206.400 205.618,206.400 201.813 L 206.400 198.667 204.800 198.667 L 203.200 198.667 203.200 201.834 C 203.200 205.770,203.326 205.641,199.561 205.543 L 196.667 205.467 196.667 204.533 L 196.667 203.600 198.859 203.523 L 201.051 203.445 201.125 200.056 L 201.200 196.667 204.267 196.589 C 208.872 196.473,208.533 196.191,208.533 200.138 L 208.533 203.467 210.791 203.467 C 213.564 203.467,213.600 203.513,213.600 207.067 C 213.600 210.620,213.564 210.667,210.791 210.667 L 208.533 210.667 208.533 213.680 C 208.533 217.457,208.656 217.333,204.902 217.333 C 200.779 217.333,201.067 217.595,201.067 213.843 L 201.067 210.676 194.470 210.605 C 188.386 210.539,187.867 210.496,187.782 210.058 C 187.732 209.796,191.000 203.242,195.045 195.493 C 199.090 187.744,202.400 181.322,202.400 181.222 C 202.400 181.123,201.671 181.077,200.780 181.121 L 199.160 181.200 192.841 193.333 C 187.562 203.468,186.421 205.481,185.913 205.554 C 185.229 205.652,184.533 205.189,184.533 204.637 C 184.533 204.090,197.326 179.653,197.814 179.267 C 198.459 178.757,205.160 178.804,205.590 179.321 " stroke="none" fill="#fc5c34" fill-rule="evenodd"></path><path id="path2" d="M105.759 109.446 C 101.869 113.307,101.359 114.146,102.320 115.098 C 102.791 115.565,103.816 117.031,103.882 117.333 C 103.898 117.407,104.060 117.827,104.241 118.267 C 104.874 119.802,104.695 124.267,104.000 124.267 C 103.889 124.267,103.656 124.611,103.481 125.031 C 103.307 125.451,102.873 125.952,102.516 126.143 C 102.159 126.334,101.867 126.634,101.867 126.810 C 101.867 128.109,95.954 129.704,94.733 128.733 C 94.550 128.587,94.400 128.547,94.400 128.643 C 94.400 128.740,94.130 128.669,93.800 128.486 C 93.470 128.303,93.122 128.175,93.026 128.201 C 92.930 128.228,92.705 128.073,92.526 127.858 C 92.348 127.643,92.073 127.467,91.915 127.467 C 91.758 127.467,91.300 127.152,90.899 126.767 C 89.636 125.557,89.739 125.467,71.877 143.328 C 52.563 162.642,53.798 161.245,54.836 162.598 C 57.464 166.025,58.008 170.352,56.072 172.441 C 55.739 172.800,55.467 173.157,55.467 173.235 C 55.467 173.312,54.977 173.846,54.378 174.421 C 53.367 175.393,53.011 175.590,52.447 175.492 C 52.326 175.471,52.290 175.555,52.366 175.678 C 52.556 175.986,51.007 176.514,49.867 176.530 C 48.019 176.555,47.675 176.529,47.373 176.340 C 47.205 176.235,46.864 176.117,46.615 176.078 C 45.992 175.981,44.270 175.004,43.467 174.292 C 42.245 173.208,41.741 173.479,37.929 177.269 C 33.981 181.195,33.594 181.807,34.376 182.889 C 35.078 183.860,48.117 196.794,48.422 196.822 C 48.991 196.874,50.569 197.074,50.999 197.149 C 52.264 197.371,53.609 199.048,53.984 200.873 C 54.066 201.273,54.199 201.930,54.279 202.333 C 54.563 203.756,61.516 210.393,62.890 210.551 C 66.071 210.919,67.229 212.052,67.768 215.326 C 68.118 217.451,95.269 244.558,96.800 244.310 C 97.500 244.197,98.387 243.661,98.247 243.436 C 98.174 243.316,98.536 242.944,99.053 242.609 C 99.570 242.274,99.995 241.916,99.997 241.812 C 100.002 241.538,102.418 239.200,102.696 239.200 C 102.827 239.200,102.903 239.099,102.867 238.975 C 102.788 238.710,105.307 236.267,105.658 236.267 C 105.790 236.267,105.827 236.151,105.739 236.009 C 105.651 235.867,106.003 235.477,106.520 235.142 C 107.037 234.807,107.462 234.449,107.463 234.346 C 107.468 234.071,109.884 231.733,110.163 231.733 C 110.293 231.733,110.370 231.632,110.333 231.508 C 110.255 231.243,112.773 228.800,113.125 228.800 C 113.257 228.800,113.293 228.684,113.206 228.542 C 113.118 228.401,113.469 228.011,113.987 227.676 C 114.504 227.341,114.928 226.982,114.930 226.879 C 114.935 226.605,117.351 224.267,117.630 224.267 C 117.760 224.267,117.837 224.155,117.800 224.018 C 117.763 223.882,118.106 223.492,118.561 223.152 C 119.017 222.812,119.397 222.428,119.406 222.300 C 119.415 222.171,119.734 221.862,120.113 221.613 C 120.493 221.364,120.732 221.087,120.643 220.999 C 120.555 220.911,120.913 220.560,121.438 220.219 C 121.963 219.879,122.395 219.516,122.397 219.412 C 122.402 219.129,124.822 216.800,125.112 216.800 C 125.251 216.800,125.299 216.694,125.220 216.565 C 125.140 216.436,125.484 216.050,125.984 215.707 C 126.484 215.364,126.840 214.998,126.775 214.893 C 126.710 214.788,127.019 214.488,127.462 214.227 C 127.905 213.966,128.267 213.604,128.267 213.424 C 128.267 213.244,128.627 212.884,129.067 212.624 C 129.507 212.364,129.867 212.063,129.867 211.955 C 129.867 211.667,132.281 209.333,132.579 209.333 C 132.718 209.333,132.766 209.228,132.686 209.098 C 132.606 208.969,132.950 208.583,133.450 208.240 C 133.951 207.898,134.307 207.531,134.242 207.426 C 134.177 207.322,134.486 207.022,134.929 206.760 C 135.371 206.499,135.733 206.138,135.733 205.958 C 135.733 205.777,136.093 205.417,136.533 205.158 C 136.973 204.898,137.333 204.596,137.333 204.488 C 137.333 204.210,139.743 201.867,140.030 201.867 C 140.160 201.867,140.267 201.717,140.267 201.533 C 140.268 201.350,140.619 200.965,141.048 200.677 C 141.478 200.390,141.775 200.068,141.710 199.962 C 141.644 199.856,141.946 199.559,142.381 199.302 C 142.815 199.046,143.113 198.742,143.042 198.627 C 142.971 198.512,143.336 198.144,143.853 197.809 C 144.370 197.474,144.795 197.116,144.797 197.012 C 144.802 196.729,147.222 194.400,147.512 194.400 C 147.651 194.400,147.699 194.294,147.620 194.165 C 147.540 194.036,147.884 193.650,148.384 193.307 C 148.884 192.964,149.240 192.598,149.175 192.493 C 149.110 192.388,149.419 192.088,149.862 191.827 C 150.305 191.566,150.667 191.204,150.667 191.024 C 150.667 190.844,151.027 190.484,151.467 190.224 C 151.907 189.964,152.267 189.663,152.267 189.555 C 152.267 189.267,154.681 186.933,154.979 186.933 C 155.118 186.933,155.166 186.828,155.086 186.698 C 155.006 186.569,155.350 186.183,155.850 185.840 C 156.351 185.498,156.707 185.131,156.642 185.026 C 156.577 184.922,156.886 184.622,157.329 184.360 C 157.771 184.099,158.133 183.738,158.133 183.558 C 158.133 183.377,158.493 183.017,158.933 182.758 C 159.373 182.498,159.733 182.196,159.733 182.088 C 159.733 181.810,162.143 179.467,162.430 179.467 C 162.560 179.467,162.637 179.355,162.600 179.218 C 162.563 179.082,162.947 178.662,163.452 178.285 C 163.957 177.908,164.280 177.600,164.169 177.600 C 164.059 177.600,164.594 177.000,165.359 176.267 C 166.124 175.533,166.851 174.933,166.975 174.933 C 167.099 174.933,167.200 174.819,167.200 174.679 C 167.200 174.351,169.580 172.000,169.912 172.000 C 170.051 172.000,170.099 171.894,170.020 171.765 C 169.940 171.636,170.292 171.246,170.802 170.898 C 171.312 170.551,171.731 170.127,171.732 169.956 C 171.733 169.784,171.839 169.604,171.968 169.556 C 172.096 169.507,172.289 169.062,172.396 168.568 C 172.590 167.669,172.587 167.665,158.676 153.745 C 151.024 146.088,144.621 139.818,144.448 139.814 C 143.314 139.783,141.888 139.374,141.229 138.892 C 140.804 138.582,140.555 138.494,140.674 138.697 C 140.794 138.900,140.630 138.837,140.311 138.557 C 139.991 138.277,139.791 137.987,139.866 137.912 C 139.940 137.838,139.833 137.587,139.627 137.355 C 139.145 136.812,138.654 135.009,138.849 134.501 C 139.082 133.895,131.414 126.267,130.496 126.191 C 130.106 126.159,129.602 125.983,129.376 125.800 C 129.038 125.526,129.005 125.534,129.190 125.841 C 129.358 126.120,129.320 126.156,129.041 125.982 C 128.835 125.853,128.504 125.724,128.304 125.694 C 128.105 125.663,127.636 125.360,127.261 125.019 C 126.887 124.679,126.681 124.580,126.803 124.800 C 126.944 125.054,126.813 125.014,126.444 124.691 C 126.125 124.410,125.923 124.121,125.996 124.048 C 126.069 123.975,125.985 123.743,125.809 123.531 C 125.457 123.107,125.324 122.608,125.293 121.600 C 125.255 120.386,124.623 119.654,117.684 112.785 C 112.598 107.750,110.617 105.953,110.098 105.903 C 109.516 105.848,108.773 106.455,105.759 109.446 M281.876 112.877 C 278.051 116.697,274.872 120.073,274.811 120.378 C 274.751 120.684,274.639 121.398,274.562 121.966 C 274.485 122.535,274.237 123.204,274.011 123.455 C 273.784 123.705,273.662 123.973,273.738 124.049 C 273.922 124.234,271.848 125.600,271.383 125.600 C 271.185 125.600,270.932 125.690,270.822 125.800 C 270.712 125.910,270.362 126.007,270.045 126.016 C 268.052 126.071,261.293 132.795,260.946 135.067 C 260.603 137.318,259.285 139.071,257.762 139.303 C 257.599 139.328,257.317 139.442,257.133 139.557 C 256.950 139.671,256.688 139.696,256.552 139.611 C 256.415 139.527,256.227 139.582,256.133 139.733 C 256.040 139.885,255.846 139.936,255.703 139.848 C 255.243 139.564,253.951 140.786,240.707 154.035 C 227.260 167.488,227.200 167.552,227.200 168.583 C 227.200 169.292,302.005 244.311,302.834 244.432 C 303.092 244.470,303.430 244.420,303.585 244.321 C 303.740 244.222,303.961 244.140,304.077 244.137 C 304.436 244.130,331.225 217.239,331.576 216.533 C 331.758 216.167,331.928 215.447,331.954 214.933 C 332.011 213.829,332.430 212.915,333.300 212.000 C 333.649 211.633,333.837 211.507,333.719 211.719 C 333.598 211.936,333.877 211.839,334.358 211.497 C 334.827 211.162,335.672 210.854,336.234 210.812 C 337.587 210.711,337.756 210.601,340.184 208.226 C 344.959 203.553,345.268 203.165,345.467 201.596 C 345.796 199.008,347.451 197.343,349.867 197.171 C 350.233 197.145,350.563 197.096,350.600 197.062 C 350.671 196.996,351.057 196.888,351.420 196.833 C 351.678 196.794,364.969 183.522,365.340 182.933 C 366.013 181.865,365.640 181.282,361.839 177.448 C 358.174 173.752,357.847 173.511,357.116 173.968 C 356.923 174.088,356.697 174.119,356.614 174.036 C 356.530 173.953,356.224 174.188,355.932 174.559 C 355.631 174.942,355.238 175.169,355.021 175.086 C 354.811 175.005,354.705 175.045,354.785 175.175 C 354.905 175.370,354.403 175.739,353.867 175.848 C 353.793 175.863,353.559 175.985,353.345 176.120 C 353.132 176.255,352.648 176.380,352.270 176.398 C 351.892 176.415,351.447 176.514,351.281 176.617 C 351.003 176.788,349.484 176.697,348.533 176.452 C 346.686 175.975,344.216 173.830,343.190 171.811 C 342.179 169.823,342.424 164.800,343.532 164.800 C 343.643 164.800,343.733 164.615,343.733 164.388 C 343.733 164.161,344.043 163.666,344.422 163.287 C 346.179 161.530,347.254 162.820,328.041 143.625 C 308.887 124.491,309.813 125.267,308.346 127.107 C 308.022 127.513,307.677 127.766,307.579 127.668 C 307.481 127.570,307.016 127.783,306.545 128.142 C 306.075 128.501,305.334 128.834,304.900 128.881 C 304.465 128.929,303.995 129.027,303.855 129.099 C 301.842 130.133,297.060 127.243,295.568 124.091 C 294.370 121.558,295.221 116.487,296.957 115.821 C 297.161 115.742,297.471 115.203,297.645 114.623 L 297.961 113.568 294.181 109.781 C 289.107 104.698,290.388 104.376,281.876 112.877 M122.364 122.505 C 122.396 123.075,122.563 123.795,122.735 124.105 C 122.907 124.414,123.052 124.759,123.057 124.871 C 123.088 125.545,126.452 128.375,127.128 128.297 C 127.162 128.293,127.612 128.466,128.128 128.682 C 128.644 128.897,129.067 129.009,129.067 128.930 C 129.067 127.805,135.858 134.673,135.943 135.884 C 136.014 136.883,137.089 139.093,137.945 140.000 C 139.017 141.136,140.361 142.287,140.123 141.867 C 139.929 141.522,139.960 141.517,140.349 141.833 C 140.597 142.034,140.800 142.121,140.800 142.027 C 140.800 141.932,141.070 142.017,141.400 142.216 C 141.730 142.415,142.180 142.560,142.400 142.538 C 143.311 142.449,144.682 143.715,156.640 155.691 L 169.148 168.216 132.816 204.549 L 96.485 240.883 83.600 228.000 C 71.072 215.474,70.710 215.083,70.532 213.895 C 70.318 212.473,69.879 211.535,69.094 210.825 C 68.786 210.546,68.533 210.156,68.533 209.959 C 68.533 209.761,68.374 209.600,68.180 209.600 C 67.985 209.600,67.545 209.300,67.201 208.934 C 66.857 208.568,66.516 208.329,66.442 208.402 C 66.369 208.475,66.060 208.380,65.755 208.191 C 65.450 208.002,64.780 207.813,64.267 207.772 C 62.899 207.661,57.177 201.956,56.956 200.482 C 56.781 199.316,55.923 197.587,55.190 196.924 C 54.902 196.664,54.667 196.289,54.667 196.092 C 54.667 195.895,54.501 195.733,54.299 195.733 C 54.097 195.733,53.777 195.546,53.587 195.318 C 53.092 194.721,51.468 194.073,50.521 194.095 C 49.808 194.111,48.964 193.367,43.624 188.024 L 37.540 181.936 39.984 179.468 L 42.428 177.000 43.081 177.613 C 43.440 177.950,43.733 178.127,43.733 178.005 C 43.733 177.884,43.943 177.968,44.200 178.194 C 44.634 178.575,45.466 178.927,45.935 178.927 C 46.045 178.927,46.525 179.088,47.001 179.285 C 47.802 179.616,48.737 179.639,51.233 179.389 C 51.765 179.335,52.642 179.031,53.182 178.713 C 53.722 178.394,54.283 178.133,54.428 178.133 C 54.573 178.133,55.006 177.803,55.390 177.400 C 55.773 176.997,55.985 176.847,55.860 177.067 C 55.735 177.287,56.180 176.883,56.850 176.170 C 57.956 174.991,58.486 174.188,59.677 171.895 C 60.806 169.720,59.854 163.824,58.121 162.256 C 57.661 161.839,58.456 160.997,73.772 145.685 C 88.835 130.625,89.938 129.582,90.374 129.977 C 90.632 130.210,90.968 130.400,91.122 130.400 C 91.276 130.400,91.553 130.583,91.739 130.806 C 91.924 131.030,92.138 131.151,92.213 131.075 C 92.289 131.000,92.512 131.072,92.709 131.235 C 92.906 131.398,93.067 131.453,93.067 131.357 C 93.067 131.260,93.337 131.330,93.667 131.511 C 95.152 132.327,99.047 132.196,100.439 131.283 C 100.784 131.057,101.067 130.952,101.067 131.049 C 101.067 131.146,101.637 130.840,102.333 130.369 C 103.709 129.439,105.340 127.829,105.125 127.613 C 105.051 127.540,105.188 127.404,105.428 127.311 C 105.669 127.219,105.867 127.041,105.867 126.917 C 105.867 126.792,106.257 126.055,106.733 125.278 C 108.330 122.678,107.957 118.006,105.934 115.255 C 105.167 114.212,105.079 114.371,108.103 111.366 L 110.217 109.265 116.262 115.366 C 121.919 121.075,122.310 121.533,122.364 122.505 M292.047 111.913 L 294.370 114.226 293.848 114.959 C 292.247 117.208,291.287 122.701,292.280 123.933 C 292.309 123.970,292.359 124.090,292.390 124.200 C 292.570 124.839,292.952 125.566,293.495 126.300 C 293.833 126.759,294.059 127.186,293.995 127.249 C 293.932 127.312,294.614 128.077,295.511 128.949 C 296.408 129.820,297.045 130.353,296.928 130.133 C 296.794 129.882,296.954 129.933,297.357 130.270 C 298.158 130.939,299.733 131.820,299.733 131.599 C 299.733 131.509,299.883 131.529,300.067 131.643 C 301.454 132.510,306.099 132.057,307.774 130.892 C 308.164 130.621,308.599 130.400,308.742 130.400 C 308.885 130.400,309.158 130.212,309.348 129.982 C 309.650 129.618,311.789 131.658,325.764 145.631 L 341.833 161.698 341.365 162.382 C 338.983 165.865,338.860 171.498,341.111 174.020 C 341.383 174.324,341.547 174.631,341.476 174.702 C 341.405 174.773,342.081 175.544,342.978 176.415 C 343.874 177.287,344.513 177.820,344.396 177.600 C 344.279 177.380,344.563 177.552,345.025 177.983 C 345.488 178.414,345.867 178.681,345.867 178.577 C 345.867 178.473,346.137 178.564,346.467 178.779 C 347.061 179.167,348.106 179.420,349.817 179.591 C 350.303 179.639,350.772 179.750,350.859 179.837 C 350.946 179.924,351.149 179.888,351.309 179.756 C 351.469 179.624,351.960 179.453,352.400 179.374 C 353.977 179.093,354.460 178.949,354.816 178.654 C 355.014 178.489,355.332 178.444,355.522 178.553 C 355.711 178.663,355.773 178.649,355.659 178.524 C 355.544 178.398,355.900 178.077,356.449 177.810 L 357.447 177.324 359.781 179.648 L 362.115 181.971 356.100 187.985 C 352.791 191.293,349.975 194.015,349.842 194.033 C 349.709 194.052,349.570 194.090,349.533 194.118 C 349.497 194.147,349.149 194.212,348.761 194.264 C 348.373 194.316,347.684 194.550,347.230 194.784 C 346.777 195.019,346.342 195.204,346.264 195.195 C 346.186 195.187,345.915 195.301,345.661 195.448 C 345.407 195.596,345.294 195.721,345.409 195.725 C 345.524 195.730,345.215 196.136,344.723 196.628 C 343.729 197.622,342.647 199.717,342.563 200.810 C 342.482 201.879,336.443 207.972,335.560 207.876 C 335.208 207.837,334.851 207.917,334.767 208.054 C 334.682 208.191,334.471 208.249,334.299 208.183 C 334.126 208.116,333.156 208.648,332.143 209.364 C 331.130 210.081,330.380 210.667,330.476 210.667 C 330.572 210.667,330.354 211.103,329.992 211.637 C 329.349 212.585,328.717 214.393,328.861 214.875 C 328.901 215.008,323.106 220.948,315.984 228.076 L 303.034 241.035 266.798 204.798 L 230.563 168.562 243.481 155.654 C 257.007 142.139,256.451 142.624,259.106 142.044 C 259.526 141.952,261.600 140.500,261.601 140.297 C 261.602 140.207,261.936 139.773,262.344 139.333 C 263.053 138.569,263.733 136.870,263.733 135.866 C 263.733 135.606,265.083 134.026,266.733 132.354 C 269.542 129.507,271.056 128.208,270.514 129.107 C 270.341 129.395,270.389 129.393,270.755 129.095 C 271.007 128.891,271.290 128.801,271.385 128.896 C 271.479 128.990,271.760 128.884,272.009 128.659 C 272.257 128.434,272.733 128.198,273.067 128.133 C 274.904 127.779,277.333 124.425,277.333 122.241 C 277.333 121.858,289.209 109.620,289.595 109.605 C 289.665 109.602,290.768 110.641,292.047 111.913 M85.634 157.312 C 66.952 176.024,51.573 191.514,51.457 191.735 C 51.154 192.313,51.834 193.113,52.719 193.219 C 53.493 193.312,54.484 193.519,54.600 193.613 C 54.637 193.642,54.757 193.687,54.867 193.711 C 56.600 194.097,57.738 195.725,58.050 198.267 C 58.243 199.829,59.251 200.357,60.133 199.356 C 60.280 199.190,60.746 198.787,61.169 198.460 C 61.592 198.134,61.850 197.867,61.741 197.867 C 61.514 197.867,63.000 196.396,64.028 195.603 C 64.410 195.308,64.710 194.982,64.695 194.878 C 64.679 194.774,65.080 194.384,65.585 194.011 C 66.090 193.638,66.430 193.333,66.339 193.333 C 66.109 193.333,67.704 191.724,68.652 191.000 C 69.084 190.670,69.341 190.400,69.224 190.400 C 68.984 190.400,70.434 188.954,71.495 188.136 C 71.877 187.841,72.177 187.515,72.161 187.411 C 72.146 187.307,72.547 186.917,73.052 186.544 C 73.557 186.172,73.899 185.867,73.812 185.867 C 73.615 185.867,75.301 184.169,76.204 183.459 C 76.571 183.170,76.783 182.933,76.674 182.933 C 76.447 182.933,77.933 181.462,78.961 180.669 C 79.344 180.374,79.644 180.048,79.628 179.944 C 79.613 179.840,80.013 179.450,80.518 179.078 C 81.024 178.705,81.366 178.400,81.278 178.400 C 81.081 178.400,82.768 176.702,83.670 175.992 C 84.038 175.703,84.272 175.467,84.190 175.467 C 83.973 175.467,85.603 173.833,86.518 173.133 C 86.950 172.803,87.204 172.533,87.082 172.533 C 86.960 172.533,87.313 172.173,87.867 171.733 C 88.420 171.293,88.809 170.933,88.730 170.933 C 88.545 170.933,90.269 169.208,91.137 168.526 C 91.504 168.237,91.738 168.000,91.656 168.000 C 91.439 168.000,93.070 166.366,93.985 165.667 C 94.417 165.337,94.670 165.067,94.548 165.067 C 94.426 165.067,94.780 164.707,95.333 164.267 C 95.887 163.827,96.276 163.467,96.197 163.467 C 96.011 163.467,97.736 161.742,98.604 161.059 C 98.971 160.770,99.183 160.533,99.074 160.533 C 98.847 160.533,100.333 159.062,101.361 158.269 C 101.744 157.974,102.091 157.613,102.133 157.467 C 102.176 157.320,102.576 156.930,103.024 156.600 C 103.471 156.270,103.766 156.000,103.678 156.000 C 103.481 156.000,105.168 154.302,106.070 153.592 C 106.438 153.303,106.650 153.067,106.541 153.067 C 106.314 153.067,107.800 151.596,108.828 150.803 C 109.210 150.508,109.510 150.182,109.495 150.078 C 109.479 149.974,109.880 149.584,110.385 149.211 C 110.890 148.838,111.232 148.533,111.145 148.533 C 110.948 148.533,112.634 146.836,113.537 146.126 C 113.904 145.837,114.138 145.600,114.056 145.600 C 113.851 145.600,115.446 143.985,116.295 143.333 C 116.677 143.040,117.024 142.680,117.067 142.533 C 117.109 142.387,117.510 141.997,117.957 141.667 C 118.404 141.337,118.699 141.067,118.612 141.067 C 118.415 141.067,120.101 139.369,121.004 138.659 C 121.371 138.370,121.602 138.133,121.517 138.133 C 121.432 138.133,122.331 137.173,123.515 136.000 C 124.700 134.827,125.780 133.867,125.917 133.867 C 126.053 133.867,126.109 133.777,126.042 133.667 C 125.974 133.557,126.320 133.167,126.811 132.800 C 127.966 131.937,128.465 131.040,128.107 130.473 C 127.836 130.044,127.501 129.936,125.967 129.787 C 125.509 129.742,124.819 129.499,124.434 129.247 C 124.049 128.994,123.733 128.873,123.733 128.977 C 123.733 129.081,123.378 128.826,122.943 128.409 C 122.508 127.993,122.215 127.550,122.292 127.426 C 122.369 127.302,122.317 127.200,122.178 127.200 C 121.811 127.200,121.563 126.469,121.369 124.820 C 121.000 121.664,123.423 119.460,85.634 157.312 M278.619 123.657 C 278.444 123.868,278.256 124.541,278.200 125.153 C 278.033 126.990,276.889 128.606,274.959 129.731 C 274.683 129.892,274.644 129.851,274.810 129.575 C 275.000 129.259,274.967 129.256,274.596 129.556 C 274.354 129.752,274.040 129.840,273.897 129.752 C 273.754 129.664,273.560 129.715,273.467 129.867 C 273.373 130.018,273.199 130.082,273.080 130.008 C 272.795 129.832,271.467 130.882,271.467 131.284 C 271.467 131.998,340.080 200.243,340.547 199.993 C 340.794 199.860,341.052 199.808,341.120 199.876 C 341.189 199.944,341.260 199.850,341.278 199.667 C 341.645 196.014,343.501 193.634,346.133 193.440 C 346.500 193.413,346.800 193.368,346.800 193.342 C 346.800 193.315,347.028 193.250,347.307 193.197 C 347.869 193.092,348.256 192.608,348.263 192.002 C 348.269 191.405,280.307 123.537,279.559 123.394 C 279.212 123.327,278.796 123.444,278.619 123.657 M119.644 127.028 C 119.644 128.148,122.730 131.188,124.076 131.394 C 124.383 131.440,124.683 131.528,124.743 131.588 C 124.861 131.706,60.111 196.533,59.876 196.533 C 59.797 196.533,59.753 196.443,59.777 196.333 C 59.951 195.538,56.977 191.657,56.395 191.921 C 56.329 191.951,55.905 191.846,55.453 191.689 L 54.631 191.402 57.406 188.634 C 58.932 187.112,60.131 185.867,60.070 185.867 C 60.009 185.867,60.298 185.581,60.713 185.231 C 61.886 184.242,67.679 178.401,67.496 178.392 C 67.407 178.387,67.573 178.205,67.867 177.987 C 68.676 177.386,75.165 170.935,74.970 170.925 C 74.877 170.920,75.040 170.738,75.333 170.520 C 76.143 169.919,82.632 163.468,82.437 163.458 C 82.343 163.454,82.507 163.271,82.800 163.054 C 83.609 162.452,90.099 156.001,89.904 155.992 C 89.810 155.987,89.973 155.805,90.267 155.587 C 91.076 154.986,97.565 148.535,97.370 148.525 C 97.277 148.520,97.440 148.338,97.733 148.120 C 98.543 147.519,105.032 141.068,104.837 141.058 C 104.743 141.054,104.907 140.871,105.200 140.654 C 106.009 140.052,112.499 133.601,112.304 133.592 C 112.210 133.587,112.373 133.405,112.667 133.186 C 113.340 132.686,117.040 129.067,116.879 129.067 C 116.813 129.067,117.158 128.738,117.646 128.336 C 118.134 127.934,118.690 127.394,118.882 127.136 C 119.297 126.576,119.644 126.527,119.644 127.028 M344.496 191.467 C 342.830 191.974,340.502 194.302,340.114 195.848 C 340.020 196.225,339.865 196.533,339.771 196.533 C 339.371 196.533,274.837 131.730,275.200 131.693 C 275.420 131.670,275.720 131.637,275.867 131.618 C 276.967 131.477,279.733 128.500,279.733 127.457 C 279.733 127.218,279.818 126.937,279.922 126.834 C 280.025 126.730,294.695 141.200,312.522 158.990 C 335.635 182.055,344.808 191.372,344.496 191.467 M99.295 170.808 C 64.770 205.355,64.751 205.375,65.485 206.281 C 65.717 206.566,65.819 206.631,65.712 206.425 C 65.570 206.151,65.618 206.114,65.892 206.285 C 66.098 206.413,66.417 206.552,66.600 206.593 C 66.783 206.633,67.083 206.700,67.267 206.741 C 67.450 206.782,67.750 206.909,67.933 207.023 C 68.117 207.138,68.267 207.167,68.267 207.088 C 68.267 207.009,68.642 207.154,69.101 207.410 C 70.132 207.986,71.137 209.848,71.367 211.607 C 71.565 213.125,71.853 213.600,72.572 213.600 C 72.890 213.600,85.775 200.905,107.073 179.610 C 125.769 160.916,141.070 145.706,141.075 145.810 C 141.090 146.177,141.706 144.928,141.742 144.455 C 141.778 143.991,141.476 143.661,140.933 143.571 C 140.787 143.547,140.202 143.452,139.635 143.360 C 136.869 142.912,135.087 141.004,134.888 138.280 C 134.667 135.231,136.773 133.305,99.295 170.808 M265.276 137.553 C 265.072 137.799,264.870 138.420,264.828 138.933 C 264.632 141.345,262.394 143.159,259.409 143.327 C 258.656 143.369,257.600 144.135,257.600 144.639 C 257.600 145.057,325.929 213.333,326.348 213.333 C 326.540 213.333,326.625 213.452,326.535 213.597 C 326.278 214.013,327.290 213.579,327.667 213.112 C 327.850 212.884,328.000 212.376,328.000 211.982 C 328.000 210.962,328.695 209.432,329.541 208.589 C 330.203 207.930,332.040 206.748,332.200 206.879 C 332.237 206.909,332.297 206.923,332.333 206.910 C 332.370 206.898,332.765 206.860,333.212 206.827 C 334.301 206.745,334.667 206.483,334.667 205.784 C 334.667 205.064,267.110 137.388,266.220 137.217 C 265.895 137.154,265.486 137.300,265.276 137.553 M133.333 140.912 C 133.333 141.730,136.860 145.226,137.368 144.912 C 137.475 144.845,137.640 144.915,137.733 145.067 C 137.827 145.218,138.015 145.273,138.152 145.189 C 139.007 144.660,135.254 148.456,105.971 177.739 L 73.541 210.168 73.171 209.453 C 72.967 209.061,72.800 208.599,72.800 208.427 C 72.800 207.709,69.418 204.879,68.733 205.024 C 67.957 205.189,71.247 201.513,73.172 200.067 C 73.611 199.737,73.890 199.467,73.791 199.467 C 73.549 199.467,79.648 193.359,80.647 192.600 C 81.081 192.270,81.356 192.000,81.257 192.000 C 81.016 192.000,87.115 185.892,88.114 185.133 C 88.548 184.803,88.815 184.533,88.707 184.533 C 88.462 184.533,91.581 181.427,92.652 180.604 C 93.084 180.272,93.341 180.000,93.224 180.000 C 92.973 180.000,94.458 178.534,95.585 177.669 C 96.017 177.338,96.282 177.067,96.173 177.067 C 95.929 177.067,99.047 173.961,100.118 173.137 C 100.550 172.805,100.830 172.533,100.739 172.533 C 100.509 172.533,102.104 170.924,103.052 170.200 C 103.484 169.870,103.748 169.600,103.640 169.600 C 103.396 169.600,106.514 166.494,107.585 165.670 C 108.017 165.338,108.296 165.067,108.206 165.067 C 107.976 165.067,109.570 163.458,110.518 162.733 C 110.950 162.403,111.221 162.133,111.120 162.133 C 110.880 162.133,116.965 156.047,117.985 155.267 C 118.417 154.937,118.688 154.667,118.587 154.667 C 118.360 154.667,124.398 148.607,125.361 147.867 C 125.744 147.573,126.044 147.248,126.028 147.144 C 126.013 147.040,126.413 146.650,126.918 146.278 C 127.424 145.905,127.761 145.600,127.669 145.600 C 127.576 145.600,128.703 144.399,130.174 142.932 C 132.653 140.458,133.333 140.023,133.333 140.912 M299.068 172.800 C 316.817 190.547,331.277 205.076,331.203 205.087 C 330.415 205.205,330.008 205.389,329.126 206.023 C 327.938 206.877,326.781 208.386,326.522 209.419 C 326.423 209.812,326.265 210.133,326.172 210.133 C 325.929 210.133,261.333 145.510,261.333 145.267 C 261.333 145.157,261.543 145.063,261.800 145.058 C 262.057 145.054,262.494 144.877,262.773 144.667 C 263.051 144.456,263.370 144.340,263.481 144.409 C 263.779 144.593,266.113 141.908,266.299 141.168 C 266.538 140.212,264.724 138.460,299.068 172.800 M136.361 207.738 C 128.213 215.886,121.914 222.393,121.777 222.802 C 121.343 224.104,122.536 224.840,125.011 224.797 C 125.493 224.789,126.027 224.868,126.197 224.973 C 126.367 225.078,126.752 225.194,127.053 225.232 C 128.535 225.415,129.263 225.566,129.933 225.831 C 130.337 225.990,130.667 226.060,130.667 225.987 C 130.667 225.914,130.967 226.051,131.333 226.291 C 131.700 226.531,132.000 226.640,132.000 226.531 C 132.000 226.423,132.180 226.484,132.400 226.667 C 132.620 226.849,132.800 226.930,132.800 226.846 C 132.800 226.598,137.404 229.041,138.011 229.611 C 138.317 229.898,138.685 230.133,138.828 230.133 C 138.972 230.133,139.619 230.673,140.267 231.333 C 140.914 231.993,141.569 232.533,141.721 232.533 C 141.873 232.533,147.160 237.695,153.470 244.003 C 159.791 250.323,165.203 255.523,165.522 255.585 C 165.989 255.675,167.795 254.007,174.784 247.032 C 182.769 239.063,184.000 237.745,184.000 237.166 C 184.000 237.054,178.499 231.436,171.775 224.681 C 160.889 213.745,157.333 209.912,157.333 209.111 C 157.333 208.976,157.150 208.714,156.927 208.528 C 156.703 208.342,156.579 208.132,156.651 208.060 C 156.724 207.988,156.546 207.628,156.258 207.262 C 155.969 206.895,155.733 206.483,155.733 206.347 C 155.733 206.211,155.444 205.467,155.091 204.695 C 154.737 203.922,154.321 202.820,154.166 202.245 C 153.516 199.837,153.060 197.613,152.898 196.065 C 152.793 195.058,152.558 194.271,152.296 194.045 C 151.059 192.980,151.484 192.614,136.361 207.738 M247.092 194.179 C 246.906 194.443,246.729 195.412,246.697 196.330 C 246.646 197.817,246.129 200.502,245.681 201.600 C 245.591 201.820,245.469 202.300,245.408 202.667 C 245.348 203.033,244.958 204.053,244.541 204.933 C 244.124 205.813,243.622 206.923,243.426 207.400 C 243.230 207.877,242.991 208.267,242.894 208.267 C 242.798 208.267,242.593 208.627,242.440 209.067 C 242.287 209.507,242.028 209.867,241.865 209.867 C 241.702 209.867,241.629 209.965,241.704 210.086 C 241.778 210.206,241.635 210.490,241.386 210.716 C 241.137 210.942,240.633 211.529,240.267 212.021 C 239.900 212.513,234.620 217.919,228.533 224.034 C 215.719 236.910,216.109 236.502,215.897 237.209 C 215.712 237.823,233.158 255.528,234.097 255.680 C 234.536 255.752,235.038 255.371,237.254 253.281 C 237.518 253.033,238.326 252.223,239.050 251.481 C 239.774 250.740,240.464 250.133,240.583 250.133 C 240.703 250.133,240.800 249.974,240.800 249.778 C 240.800 249.583,241.100 249.263,241.467 249.067 C 241.833 248.870,242.133 248.601,242.133 248.467 C 242.133 248.334,242.608 247.784,243.187 247.246 C 244.946 245.611,245.153 245.411,246.517 244.015 C 247.241 243.273,247.931 242.667,248.050 242.667 C 248.169 242.667,248.267 242.507,248.267 242.312 C 248.267 242.117,248.567 241.796,248.933 241.600 C 249.300 241.404,249.600 241.148,249.600 241.032 C 249.600 240.760,255.249 235.200,255.525 235.200 C 255.640 235.200,255.733 235.040,255.733 234.845 C 255.733 234.650,256.033 234.330,256.400 234.133 C 256.767 233.937,257.067 233.633,257.067 233.457 C 257.067 233.281,257.553 232.816,258.147 232.423 C 258.741 232.030,259.431 231.462,259.680 231.162 C 260.177 230.563,263.162 228.533,263.545 228.533 C 263.677 228.533,264.140 228.280,264.574 227.971 C 265.009 227.662,265.433 227.478,265.518 227.562 C 265.602 227.647,265.972 227.480,266.338 227.191 C 266.705 226.903,267.222 226.667,267.487 226.667 C 267.752 226.667,268.048 226.538,268.145 226.382 C 268.241 226.225,268.485 226.160,268.685 226.237 C 268.886 226.314,269.112 226.276,269.189 226.152 C 269.265 226.028,269.719 225.853,270.197 225.763 C 270.675 225.672,271.367 225.528,271.733 225.441 C 272.100 225.355,272.760 225.246,273.200 225.199 C 273.640 225.151,274.000 225.086,274.000 225.053 C 274.000 225.021,274.623 224.970,275.384 224.940 C 276.929 224.881,277.726 224.443,278.004 223.501 C 278.170 222.936,276.624 221.301,263.613 208.283 C 248.079 192.739,248.092 192.750,247.092 194.179 M150.422 198.867 C 150.497 200.459,152.001 205.629,152.811 207.082 C 153.627 208.543,154.244 209.731,154.258 209.867 C 154.339 210.623,158.544 215.125,168.613 225.234 L 180.600 237.269 173.062 244.834 L 165.525 252.400 155.362 242.186 C 145.839 232.615,139.551 226.626,139.345 226.933 C 139.296 227.007,139.033 226.887,138.761 226.667 C 138.489 226.447,137.980 226.105,137.630 225.908 C 137.280 225.711,136.589 225.323,136.095 225.045 C 135.601 224.767,135.136 224.540,135.063 224.540 C 134.990 224.540,134.541 224.377,134.065 224.178 C 133.011 223.739,131.116 223.107,130.933 223.135 C 130.860 223.146,130.650 223.030,130.467 222.878 C 130.283 222.726,130.133 222.680,130.133 222.777 C 130.133 222.873,129.863 222.806,129.533 222.627 C 129.203 222.448,128.693 222.286,128.400 222.267 C 128.107 222.247,127.521 222.210,127.099 222.183 C 126.398 222.138,127.373 221.089,138.165 210.274 C 150.187 198.227,150.383 198.045,150.422 198.867 M261.436 210.103 C 268.475 217.143,273.062 221.925,272.950 222.107 C 272.847 222.273,272.651 222.340,272.515 222.255 C 272.378 222.171,272.117 222.195,271.933 222.309 C 271.750 222.422,271.360 222.520,271.067 222.526 C 270.773 222.532,270.383 222.633,270.200 222.751 C 270.017 222.869,269.755 222.896,269.618 222.811 C 269.482 222.727,269.304 222.764,269.224 222.895 C 269.144 223.025,268.685 223.223,268.206 223.336 C 267.052 223.607,267.150 223.573,266.467 223.952 C 266.137 224.135,265.867 224.207,265.867 224.112 C 265.867 224.017,265.571 224.132,265.209 224.369 C 264.848 224.606,264.416 224.800,264.251 224.800 C 264.085 224.800,263.601 225.048,263.176 225.350 C 262.751 225.653,262.280 225.824,262.129 225.730 C 261.977 225.637,261.886 225.719,261.927 225.914 C 261.967 226.108,261.820 226.271,261.600 226.277 C 261.102 226.291,258.933 227.721,258.933 228.035 C 258.933 228.163,258.831 228.237,258.707 228.200 C 258.583 228.163,257.452 229.153,256.194 230.400 C 254.936 231.647,253.688 232.870,253.420 233.119 C 253.152 233.367,252.341 234.177,251.617 234.919 C 250.892 235.660,250.202 236.267,250.083 236.267 C 249.964 236.267,249.867 236.369,249.867 236.495 C 249.867 236.782,246.102 240.533,245.813 240.533 C 245.696 240.533,245.600 240.662,245.600 240.819 C 245.600 241.131,242.925 243.728,242.600 243.731 C 242.490 243.732,242.400 243.836,242.400 243.962 C 242.400 244.249,238.635 248.000,238.346 248.000 C 238.229 248.000,238.133 248.129,238.133 248.286 C 238.133 248.598,235.458 251.194,235.133 251.198 C 235.023 251.199,234.933 251.337,234.933 251.504 C 234.933 253.256,234.135 252.642,226.501 245.023 L 219.001 237.538 226.711 229.836 C 230.952 225.599,234.537 222.133,234.677 222.133 C 234.818 222.133,234.905 222.043,234.871 221.933 C 234.837 221.823,236.431 220.113,238.414 218.133 C 240.397 216.153,242.555 213.817,243.210 212.942 C 243.864 212.067,244.610 211.137,244.867 210.875 C 245.123 210.614,245.333 210.263,245.333 210.096 C 245.333 209.929,245.693 209.207,246.133 208.492 C 246.573 207.777,246.933 207.001,246.933 206.769 C 246.933 206.536,247.222 205.788,247.575 205.106 C 247.929 204.424,248.498 202.637,248.841 201.133 C 249.184 199.630,249.525 198.400,249.600 198.400 C 249.675 198.400,255.001 203.666,261.436 210.103 M213.433 207.067 C 213.434 208.680,213.478 209.306,213.531 208.457 C 213.584 207.608,213.583 206.288,213.530 205.524 C 213.476 204.759,213.432 205.453,213.433 207.067 M184.713 238.977 C 184.467 239.114,184.267 239.183,184.267 239.129 C 184.267 239.075,180.361 242.936,175.588 247.708 C 165.306 257.987,165.875 256.572,170.287 260.873 C 174.299 264.785,174.141 264.751,176.674 262.251 C 177.779 261.160,178.800 260.267,178.942 260.267 C 179.084 260.267,179.170 260.169,179.133 260.050 C 179.052 259.785,186.072 252.800,186.420 252.800 C 186.556 252.800,186.637 252.708,186.600 252.597 C 186.563 252.485,187.823 251.109,189.400 249.540 C 193.161 245.796,193.174 246.096,189.080 242.013 C 185.831 238.773,185.495 238.539,184.713 238.977 M214.224 238.864 C 213.393 239.008,207.556 244.937,207.378 245.818 C 207.204 246.679,224.291 264.107,225.409 264.208 C 226.087 264.270,227.200 263.764,227.200 263.394 C 227.200 263.257,227.755 262.647,228.433 262.039 C 229.111 261.431,229.801 260.783,229.966 260.600 C 230.131 260.417,230.759 259.748,231.360 259.113 C 233.378 256.980,233.882 257.740,223.791 247.705 C 216.672 240.626,214.680 238.785,214.224 238.864 M181.472 253.220 L 173.908 260.753 172.163 259.007 L 170.417 257.261 177.942 249.714 L 185.467 242.166 187.251 243.927 L 189.035 245.688 181.472 253.220 M229.173 257.441 C 229.111 257.602,228.702 257.973,228.264 258.267 C 227.826 258.560,227.468 258.892,227.467 259.004 C 227.467 259.116,227.077 259.560,226.600 259.991 L 225.733 260.775 218.228 253.284 L 210.723 245.793 212.495 243.992 L 214.267 242.191 221.776 249.670 C 225.906 253.783,229.235 257.280,229.173 257.441 M184.832 255.733 C 177.335 263.290,178.144 261.368,178.153 271.616 L 178.161 280.165 184.480 286.437 C 187.956 289.887,190.980 292.692,191.200 292.671 C 191.420 292.649,191.803 292.730,192.050 292.850 C 192.302 292.971,192.569 292.958,192.654 292.820 C 192.743 292.676,193.130 292.665,193.584 292.795 C 194.011 292.918,194.429 292.949,194.513 292.865 C 194.728 292.650,202.256 292.679,202.608 292.897 C 202.766 292.995,202.967 292.961,203.054 292.821 C 203.209 292.569,204.037 292.627,204.516 292.923 C 204.652 293.007,204.822 292.981,204.893 292.865 C 205.007 292.680,206.327 292.644,207.067 292.805 C 207.213 292.837,207.423 292.834,207.533 292.798 C 207.869 292.689,208.252 292.602,208.547 292.567 C 208.701 292.548,211.611 289.753,215.014 286.354 L 221.200 280.175 221.261 271.361 L 221.321 262.546 215.046 256.251 C 211.594 252.789,208.627 249.935,208.452 249.910 C 208.277 249.885,204.230 249.835,199.459 249.799 L 190.784 249.733 184.832 255.733 M197.014 252.901 C 197.170 252.997,197.356 252.979,197.428 252.862 C 197.565 252.641,199.557 252.675,200.167 252.909 C 200.359 252.983,200.587 252.928,200.674 252.788 C 200.775 252.625,201.007 252.625,201.314 252.790 C 201.580 252.932,201.873 252.972,201.966 252.878 C 202.218 252.626,204.066 252.610,204.584 252.855 C 204.840 252.976,205.106 252.953,205.200 252.800 C 205.307 252.626,205.533 252.622,205.842 252.787 C 206.162 252.958,206.419 252.941,206.626 252.734 C 206.858 252.502,208.306 253.795,212.549 258.024 L 218.165 263.622 218.142 271.308 L 218.118 278.995 212.756 284.364 L 207.393 289.733 199.763 289.773 L 192.133 289.813 186.600 284.309 L 181.067 278.805 181.067 271.284 C 181.067 263.815,181.071 263.761,181.659 263.348 C 181.985 263.120,182.154 262.933,182.034 262.933 C 181.914 262.933,182.806 261.973,184.016 260.800 C 185.227 259.627,186.318 258.667,186.442 258.667 C 186.565 258.667,186.637 258.560,186.600 258.430 C 186.523 258.156,189.004 255.733,189.361 255.733 C 189.493 255.733,189.570 255.632,189.533 255.508 C 189.424 255.137,192.075 252.772,192.443 252.913 C 192.630 252.985,192.835 252.959,192.899 252.855 C 193.043 252.622,196.627 252.662,197.014 252.901 M198.291 253.531 C 198.242 253.580,197.737 253.655,197.168 253.697 C 196.599 253.740,195.849 253.928,195.501 254.114 C 194.985 254.391,194.908 254.390,195.083 254.107 C 195.200 253.917,194.915 254.034,194.448 254.366 C 193.982 254.698,193.600 254.888,193.600 254.787 C 193.600 254.687,193.297 254.804,192.926 255.047 C 192.555 255.290,192.116 255.405,191.951 255.303 C 191.786 255.201,191.724 255.236,191.813 255.380 C 191.902 255.524,191.531 255.840,190.987 256.083 C 185.221 258.662,180.554 268.206,181.964 274.533 C 182.325 276.151,182.503 276.703,182.770 277.041 C 182.933 277.247,183.053 277.487,183.036 277.574 C 182.984 277.844,183.549 279.041,183.960 279.533 C 184.174 279.790,184.258 280.000,184.147 280.000 C 183.789 280.000,187.170 283.652,189.133 285.385 C 190.181 286.310,190.934 286.887,190.806 286.667 C 190.614 286.335,190.662 286.339,191.087 286.689 C 193.153 288.393,197.977 289.484,201.067 288.946 C 201.727 288.831,202.447 288.713,202.667 288.683 C 203.040 288.633,203.268 288.557,204.467 288.082 C 204.723 287.980,205.062 287.888,205.219 287.877 C 205.375 287.867,205.821 287.650,206.209 287.396 C 206.597 287.141,207.049 286.933,207.213 286.933 C 207.612 286.933,211.985 283.927,211.993 283.648 C 211.997 283.527,212.150 283.261,212.333 283.057 C 212.992 282.322,213.281 281.941,214.034 280.806 C 215.039 279.294,215.550 278.328,215.872 277.333 C 215.895 277.260,216.101 276.780,216.328 276.267 C 216.555 275.753,216.824 274.553,216.925 273.600 C 217.026 272.647,217.160 271.543,217.222 271.148 C 217.403 270.005,216.831 266.624,216.277 265.560 C 215.998 265.024,215.824 264.531,215.891 264.464 C 215.958 264.397,215.830 264.191,215.606 264.005 C 215.383 263.820,215.200 263.524,215.200 263.349 C 215.200 263.173,214.780 262.539,214.267 261.939 C 213.753 261.339,213.333 260.744,213.333 260.617 C 213.333 260.490,212.477 259.549,211.430 258.526 C 210.383 257.503,209.622 256.847,209.738 257.067 C 209.854 257.287,209.601 257.167,209.175 256.800 C 208.749 256.433,208.114 255.972,207.763 255.775 C 207.413 255.578,206.723 255.190,206.230 254.913 C 205.737 254.636,205.333 254.461,205.333 254.524 C 205.333 254.588,204.913 254.464,204.400 254.249 C 203.887 254.035,203.467 253.918,203.467 253.990 C 203.467 254.061,203.137 253.991,202.733 253.834 C 202.059 253.570,198.494 253.328,198.291 253.531 M199.869 256.530 C 199.961 256.380,200.157 256.332,200.305 256.424 C 200.452 256.515,201.014 256.621,201.553 256.661 C 203.149 256.777,204.086 257.052,204.905 257.646 C 205.329 257.954,205.578 258.039,205.459 257.836 C 205.336 257.627,205.473 257.669,205.775 257.933 C 206.069 258.190,206.429 258.400,206.577 258.400 C 207.446 258.400,213.084 264.563,212.889 265.300 C 212.865 265.392,212.946 265.588,213.069 265.736 C 213.416 266.154,214.400 270.130,214.400 271.114 C 214.400 273.146,212.162 279.200,211.410 279.200 C 211.277 279.200,211.238 279.313,211.323 279.450 C 211.408 279.588,211.265 279.824,211.006 279.976 C 210.746 280.127,210.637 280.254,210.765 280.259 C 211.119 280.271,209.098 282.171,207.600 283.235 C 205.756 284.544,205.465 284.702,205.745 284.241 C 205.871 284.035,205.521 284.209,204.969 284.627 C 204.417 285.045,203.894 285.316,203.807 285.229 C 203.720 285.142,203.507 285.189,203.333 285.333 C 203.160 285.477,202.663 285.634,202.230 285.681 C 201.797 285.729,201.328 285.833,201.188 285.914 C 200.965 286.042,196.667 286.007,196.667 285.877 C 196.667 285.850,196.367 285.775,196.000 285.710 C 195.633 285.646,195.153 285.516,194.933 285.420 C 194.713 285.324,194.473 285.230,194.400 285.211 C 193.890 285.077,192.034 283.963,191.750 283.619 C 191.558 283.389,191.263 283.200,191.093 283.200 C 190.923 283.200,190.012 282.420,189.067 281.467 C 188.122 280.513,187.458 279.733,187.591 279.733 C 187.724 279.733,187.528 279.403,187.156 279.000 C 184.591 276.221,183.907 270.334,185.693 266.400 C 187.359 262.730,191.604 258.133,193.328 258.133 C 193.488 258.133,193.915 257.940,194.276 257.703 C 194.638 257.466,194.933 257.350,194.933 257.445 C 194.933 257.541,195.203 257.469,195.533 257.286 C 195.863 257.103,196.236 256.983,196.361 257.019 C 196.487 257.056,196.727 256.978,196.895 256.846 C 197.063 256.714,197.475 256.630,197.811 256.659 C 198.148 256.689,198.485 256.612,198.561 256.489 C 198.637 256.366,198.924 256.386,199.200 256.533 C 199.537 256.714,199.756 256.713,199.869 256.530 " stroke="none" fill="#fcb43c" fill-rule="evenodd"></path></g></svg>