<svg id="svg" version="1.1" xmlns="http://www.w3.org/2000/svg" xmlns:xlink="http://www.w3.org/1999/xlink" width="400" height="400" viewBox="0, 0, 400,400"><g id="svgg"><path id="path0" d="M192.682 173.208 C 192.398 173.424,191.895 173.600,191.565 173.600 C 191.235 173.600,190.891 173.720,190.800 173.867 C 190.709 174.013,190.455 174.133,190.234 174.133 C 187.044 174.133,175.733 183.890,175.733 186.641 C 175.733 186.802,175.613 186.933,175.467 186.933 C 175.320 186.933,175.200 187.173,175.200 187.467 C 175.200 187.760,175.080 188.000,174.933 188.000 C 174.787 188.000,174.667 188.182,174.667 188.404 C 174.667 188.626,174.547 189.046,174.400 189.337 C 174.253 189.628,174.013 190.105,173.867 190.396 C 173.720 190.688,173.600 191.213,173.600 191.564 C 173.600 191.914,173.420 192.351,173.200 192.533 C 172.863 192.813,172.800 193.983,172.800 200.000 C 172.800 206.017,172.863 207.187,173.200 207.467 C 173.420 207.649,173.600 208.086,173.600 208.436 C 173.600 208.787,173.739 209.342,173.908 209.670 C 174.555 210.922,174.667 211.205,174.667 211.596 C 174.667 211.818,174.787 212.000,174.933 212.000 C 175.080 212.000,175.200 212.240,175.200 212.533 C 175.200 212.827,175.320 213.067,175.467 213.067 C 175.613 213.067,175.733 213.198,175.733 213.359 C 175.733 216.110,187.044 225.867,190.234 225.867 C 190.455 225.867,190.709 225.987,190.800 226.133 C 190.891 226.280,191.235 226.400,191.565 226.400 C 191.895 226.400,192.398 226.576,192.682 226.792 C 193.447 227.370,206.553 227.370,207.318 226.792 C 207.602 226.576,208.105 226.400,208.435 226.400 C 208.765 226.400,209.109 226.280,209.200 226.133 C 209.291 225.987,209.545 225.867,209.766 225.867 C 212.956 225.867,224.267 216.110,224.267 213.359 C 224.267 213.198,224.387 213.067,224.533 213.067 C 224.680 213.067,224.800 212.827,224.800 212.533 C 224.800 212.240,224.920 212.000,225.067 212.000 C 225.213 212.000,225.333 211.818,225.333 211.596 C 225.333 211.374,225.472 210.924,225.642 210.596 C 226.314 209.296,226.400 209.051,226.400 208.436 C 226.400 208.086,226.580 207.649,226.800 207.467 C 227.137 207.187,227.200 206.017,227.200 200.000 C 227.200 193.983,227.137 192.813,226.800 192.533 C 226.580 192.351,226.400 191.914,226.400 191.564 C 226.400 190.949,226.314 190.704,225.642 189.404 C 225.472 189.076,225.333 188.626,225.333 188.404 C 225.333 188.182,225.213 188.000,225.067 188.000 C 224.920 188.000,224.800 187.760,224.800 187.467 C 224.800 187.173,224.680 186.933,224.533 186.933 C 224.387 186.933,224.267 186.802,224.267 186.641 C 224.267 183.890,212.956 174.133,209.766 174.133 C 209.545 174.133,209.291 174.013,209.200 173.867 C 209.109 173.720,208.765 173.600,208.435 173.600 C 208.105 173.600,207.602 173.424,207.318 173.208 C 206.894 172.888,205.566 172.817,200.000 172.817 C 194.434 172.817,193.106 172.888,192.682 173.208 M205.546 179.619 C 205.592 179.940,202.547 186.053,198.279 194.212 C 194.239 201.934,190.933 208.316,190.933 208.393 C 190.933 208.470,193.549 208.533,196.747 208.533 C 203.710 208.533,203.200 208.245,203.200 212.187 L 203.200 215.200 204.800 215.200 L 206.400 215.200 206.400 212.187 C 206.400 208.532,206.399 208.533,209.120 208.533 L 211.200 208.533 211.200 207.067 L 211.200 205.600 209.120 205.600 C 206.387 205.600,206.400 205.618,206.400 201.813 L 206.400 198.667 204.800 198.667 L 203.200 198.667 203.200 201.834 C 203.200 205.754,203.304 205.643,199.723 205.543 C 195.499 205.425,194.899 203.680,199.028 203.522 L 201.067 203.444 201.067 200.309 C 201.067 196.383,200.918 196.533,204.800 196.533 C 208.683 196.533,208.533 196.381,208.533 200.320 L 208.533 203.467 210.613 203.467 C 213.330 203.467,213.333 203.471,213.333 207.067 C 213.333 210.662,213.330 210.667,210.613 210.667 L 208.533 210.667 208.533 213.680 C 208.533 217.467,208.670 217.333,204.800 217.333 C 200.930 217.333,201.067 217.467,201.067 213.685 L 201.067 210.676 194.470 210.605 C 188.537 210.541,187.865 210.488,187.788 210.085 C 187.718 209.725,196.971 191.627,201.642 182.988 L 202.694 181.042 200.910 181.121 L 199.125 181.200 192.789 193.333 C 187.165 204.104,186.377 205.476,185.778 205.549 C 184.601 205.693,184.394 204.794,185.223 203.138 C 188.516 196.565,197.261 180.008,197.694 179.526 C 198.497 178.633,205.416 178.714,205.546 179.619 " stroke="none" fill="#fc5c35" fill-rule="evenodd"></path><path id="path1" d="M197.694 179.526 C 197.261 180.008,188.516 196.565,185.223 203.138 C 184.394 204.794,184.601 205.693,185.778 205.549 C 186.377 205.476,187.165 204.104,192.789 193.333 L 199.125 181.200 200.910 181.121 L 202.694 181.042 201.642 182.988 C 196.971 191.627,187.718 209.725,187.788 210.085 C 187.865 210.488,188.537 210.541,194.470 210.605 L 201.067 210.676 201.067 213.685 C 201.067 217.467,200.930 217.333,204.800 217.333 C 208.670 217.333,208.533 217.467,208.533 213.680 L 208.533 210.667 210.613 210.667 C 213.330 210.667,213.333 210.662,213.333 207.067 C 213.333 203.471,213.330 203.467,210.613 203.467 L 208.533 203.467 208.533 200.320 C 208.533 196.381,208.683 196.533,204.800 196.533 C 200.918 196.533,201.067 196.383,201.067 200.309 L 201.067 203.444 199.028 203.522 C 194.899 203.680,195.499 205.425,199.723 205.543 C 203.304 205.643,203.200 205.754,203.200 201.834 L 203.200 198.667 204.800 198.667 L 206.400 198.667 206.400 201.813 C 206.400 205.618,206.387 205.600,209.120 205.600 L 211.200 205.600 211.200 207.067 L 211.200 208.533 209.120 208.533 C 206.399 208.533,206.400 208.532,206.400 212.187 L 206.400 215.200 204.800 215.200 L 203.200 215.200 203.200 212.187 C 203.200 208.245,203.710 208.533,196.747 208.533 C 193.549 208.533,190.933 208.470,190.933 208.393 C 190.933 208.316,194.239 201.934,198.279 194.212 C 202.547 186.053,205.592 179.940,205.546 179.619 C 205.416 178.714,198.497 178.633,197.694 179.526 " stroke="none" fill="#fcfaf9" fill-rule="evenodd"></path><path id="path2" d="M105.609 109.582 C 101.705 113.464,101.328 114.090,102.305 115.067 C 102.901 115.663,104.022 117.333,103.826 117.333 C 103.739 117.333,103.802 117.495,103.967 117.693 C 104.961 118.892,104.818 123.431,103.749 124.578 C 103.447 124.902,103.200 125.304,103.200 125.472 C 103.200 125.639,102.900 125.937,102.533 126.133 C 102.167 126.330,101.867 126.634,101.867 126.810 C 101.867 127.185,99.755 128.644,99.533 128.422 C 99.450 128.339,99.203 128.420,98.984 128.602 C 98.497 129.006,95.196 129.111,94.733 128.737 C 94.550 128.589,94.400 128.557,94.400 128.665 C 94.400 128.773,94.100 128.665,93.733 128.425 C 93.367 128.184,93.067 128.071,93.067 128.174 C 93.067 128.276,92.767 128.078,92.400 127.733 C 92.033 127.389,91.733 127.210,91.733 127.337 C 91.733 127.463,91.381 127.229,90.951 126.817 C 89.616 125.537,89.868 125.319,71.749 143.434 C 52.442 162.738,53.434 161.578,55.065 162.932 C 57.222 164.722,57.838 170.536,56.072 172.441 C 55.739 172.800,55.467 173.131,55.467 173.176 C 55.467 173.222,55.077 173.666,54.600 174.164 C 53.623 175.185,52.077 176.267,52.413 175.694 C 52.530 175.496,52.361 175.565,52.039 175.847 C 51.717 176.130,51.123 176.377,50.718 176.396 C 50.314 176.414,49.861 176.505,49.712 176.597 C 49.563 176.689,49.278 176.664,49.078 176.540 C 48.878 176.417,48.554 176.378,48.358 176.453 C 48.161 176.529,47.790 176.500,47.533 176.388 C 47.277 176.277,46.864 176.146,46.615 176.097 C 45.966 175.969,44.245 174.982,43.467 174.292 C 42.242 173.206,41.728 173.478,37.940 177.221 C 34.401 180.718,33.650 181.777,34.115 182.617 C 34.458 183.239,48.097 196.794,48.412 196.826 C 48.552 196.841,49.027 196.905,49.467 196.968 C 49.907 197.031,50.561 197.103,50.920 197.128 C 52.183 197.216,53.483 198.914,53.973 201.119 L 54.416 203.107 58.096 206.753 C 60.120 208.759,61.886 210.412,62.021 210.426 C 66.136 210.870,67.196 211.837,67.845 215.737 C 68.010 216.734,95.119 244.227,96.006 244.298 C 97.106 244.386,98.400 243.849,98.400 243.303 C 98.400 243.116,98.760 242.751,99.200 242.491 C 99.640 242.231,100.000 241.930,100.000 241.822 C 100.000 241.543,102.410 239.200,102.696 239.200 C 102.827 239.200,102.933 239.086,102.933 238.946 C 102.933 238.627,105.309 236.267,105.630 236.267 C 105.760 236.267,105.867 236.093,105.867 235.882 C 105.867 235.670,106.227 235.284,106.667 235.024 C 107.107 234.764,107.467 234.463,107.467 234.355 C 107.467 234.077,109.877 231.733,110.163 231.733 C 110.293 231.733,110.400 231.619,110.400 231.479 C 110.400 231.160,112.775 228.800,113.096 228.800 C 113.227 228.800,113.333 228.627,113.333 228.415 C 113.333 228.203,113.693 227.817,114.133 227.558 C 114.573 227.298,114.933 226.996,114.933 226.888 C 114.933 226.610,117.343 224.267,117.630 224.267 C 117.760 224.267,117.867 224.117,117.867 223.933 C 117.868 223.750,118.219 223.365,118.648 223.077 C 119.078 222.790,119.375 222.468,119.310 222.362 C 119.244 222.256,119.553 221.955,119.995 221.694 C 120.438 221.432,120.800 221.071,120.800 220.891 C 120.800 220.711,121.160 220.351,121.600 220.091 C 122.040 219.831,122.400 219.530,122.400 219.422 C 122.400 219.143,124.810 216.800,125.096 216.800 C 125.227 216.800,125.334 216.650,125.334 216.467 C 125.335 216.283,125.686 215.898,126.115 215.611 C 126.544 215.323,126.842 215.001,126.776 214.895 C 126.711 214.789,127.019 214.488,127.462 214.227 C 127.905 213.966,128.267 213.604,128.267 213.424 C 128.267 213.244,128.627 212.884,129.067 212.624 C 129.507 212.364,129.867 212.063,129.867 211.955 C 129.867 211.677,132.277 209.333,132.563 209.333 C 132.693 209.333,132.800 209.183,132.801 209.000 C 132.801 208.817,133.153 208.431,133.582 208.144 C 134.011 207.856,134.309 207.534,134.243 207.428 C 134.178 207.322,134.486 207.022,134.929 206.760 C 135.371 206.499,135.733 206.138,135.733 205.958 C 135.733 205.777,136.093 205.417,136.533 205.158 C 136.973 204.898,137.333 204.596,137.333 204.488 C 137.333 204.210,139.743 201.867,140.030 201.867 C 140.160 201.867,140.267 201.717,140.267 201.533 C 140.268 201.350,140.619 200.965,141.048 200.677 C 141.478 200.390,141.775 200.068,141.710 199.962 C 141.644 199.856,141.953 199.555,142.395 199.294 C 142.838 199.032,143.200 198.671,143.200 198.491 C 143.200 198.311,143.560 197.951,144.000 197.691 C 144.440 197.431,144.800 197.130,144.800 197.022 C 144.800 196.743,147.210 194.400,147.496 194.400 C 147.627 194.400,147.734 194.250,147.734 194.067 C 147.735 193.883,148.086 193.498,148.515 193.211 C 148.944 192.923,149.242 192.601,149.176 192.495 C 149.111 192.389,149.419 192.088,149.862 191.827 C 150.305 191.566,150.667 191.204,150.667 191.024 C 150.667 190.844,151.027 190.484,151.467 190.224 C 151.907 189.964,152.267 189.663,152.267 189.555 C 152.267 189.277,154.677 186.933,154.963 186.933 C 155.093 186.933,155.200 186.783,155.201 186.600 C 155.201 186.417,155.553 186.031,155.982 185.744 C 156.411 185.456,156.709 185.134,156.643 185.028 C 156.578 184.922,156.886 184.622,157.329 184.360 C 157.771 184.099,158.133 183.738,158.133 183.558 C 158.133 183.377,158.493 183.017,158.933 182.758 C 159.373 182.498,159.733 182.196,159.733 182.088 C 159.733 181.810,162.143 179.467,162.430 179.467 C 162.560 179.467,162.667 179.317,162.667 179.133 C 162.668 178.950,163.019 178.565,163.449 178.277 C 163.878 177.989,164.209 177.689,164.185 177.610 C 164.122 177.401,166.683 174.933,166.963 174.933 C 167.093 174.933,167.200 174.819,167.200 174.679 C 167.200 174.360,169.575 172.000,169.896 172.000 C 170.027 172.000,170.134 171.850,170.134 171.667 C 170.135 171.483,170.494 171.093,170.933 170.800 C 171.372 170.507,171.732 170.117,171.733 169.933 C 171.733 169.750,171.848 169.600,171.988 169.600 C 172.128 169.600,172.324 169.166,172.423 168.636 L 172.604 167.673 158.681 153.747 C 151.023 146.089,144.617 139.818,144.445 139.814 C 143.314 139.782,141.887 139.374,141.229 138.892 C 140.804 138.582,140.555 138.494,140.674 138.697 C 140.794 138.900,140.630 138.837,140.311 138.557 C 139.991 138.277,139.791 137.987,139.866 137.912 C 139.940 137.838,139.812 137.568,139.581 137.312 C 139.350 137.057,139.068 136.167,138.955 135.336 C 138.714 133.560,132.008 126.317,130.488 126.191 C 130.103 126.159,129.602 125.983,129.376 125.800 C 129.038 125.526,129.005 125.534,129.190 125.841 C 129.358 126.120,129.320 126.156,129.041 125.982 C 128.835 125.853,128.504 125.724,128.304 125.694 C 128.105 125.663,127.636 125.360,127.261 125.019 C 126.887 124.679,126.681 124.580,126.803 124.800 C 126.944 125.054,126.813 125.014,126.444 124.691 C 126.125 124.410,125.923 124.121,125.996 124.048 C 126.069 123.975,126.006 123.767,125.855 123.586 C 125.704 123.404,125.467 122.556,125.328 121.701 L 125.075 120.145 117.995 113.062 C 109.263 104.325,110.535 104.683,105.609 109.582 M282.207 112.488 C 274.884 119.779,274.671 120.027,274.668 121.280 C 274.667 121.764,274.462 122.544,274.211 123.013 C 273.961 123.483,273.751 123.955,273.745 124.063 C 273.731 124.296,271.733 125.690,271.733 125.467 C 271.733 125.383,271.463 125.462,271.133 125.643 C 270.803 125.824,270.293 125.982,270.000 125.995 C 268.353 126.066,261.550 132.540,261.062 134.500 C 260.241 137.794,260.228 137.822,259.131 138.547 C 258.540 138.938,257.924 139.279,257.762 139.303 C 257.599 139.328,257.347 139.414,257.200 139.493 C 257.053 139.573,256.584 139.660,256.158 139.686 C 254.974 139.760,254.579 140.127,240.425 154.285 C 228.552 166.163,227.200 167.602,227.200 168.358 C 227.200 169.268,301.774 244.277,302.834 244.432 C 303.092 244.470,303.430 244.420,303.585 244.321 C 303.740 244.222,303.961 244.140,304.077 244.137 C 304.440 244.130,331.225 217.236,331.622 216.480 C 331.830 216.084,332.000 215.332,332.000 214.810 C 332.000 213.776,332.317 213.102,333.310 212.029 C 333.664 211.646,333.853 211.507,333.729 211.719 C 333.605 211.931,333.888 211.831,334.358 211.497 C 334.827 211.162,335.672 210.854,336.234 210.812 C 338.475 210.645,345.200 203.968,345.490 201.623 C 345.722 199.738,347.166 197.457,347.826 197.933 C 347.876 197.970,348.125 197.829,348.377 197.619 C 348.630 197.409,349.218 197.210,349.685 197.175 C 350.152 197.141,350.563 197.087,350.600 197.056 C 350.673 196.995,351.073 196.886,351.420 196.833 C 351.678 196.794,364.969 183.522,365.340 182.933 C 366.034 181.832,365.663 181.256,361.800 177.425 C 359.696 175.339,357.821 173.691,357.600 173.734 C 356.595 173.927,356.382 174.038,355.908 174.616 C 355.628 174.957,355.232 175.167,355.021 175.086 C 354.811 175.005,354.705 175.045,354.785 175.175 C 354.905 175.370,354.403 175.739,353.867 175.848 C 353.793 175.863,353.559 175.985,353.345 176.120 C 353.132 176.255,352.648 176.380,352.270 176.398 C 351.892 176.415,351.467 176.498,351.325 176.582 C 351.064 176.736,349.270 176.655,348.533 176.457 C 343.593 175.123,340.601 167.822,343.667 164.581 C 343.850 164.387,344.000 164.101,344.000 163.945 C 344.000 163.789,344.300 163.383,344.667 163.043 C 346.164 161.656,346.794 162.390,327.933 143.562 C 308.753 124.415,309.835 125.323,308.345 127.132 C 308.022 127.524,307.677 127.766,307.579 127.668 C 307.481 127.570,307.001 127.795,306.512 128.168 C 306.023 128.541,305.506 128.773,305.363 128.685 C 305.220 128.597,305.023 128.655,304.925 128.814 C 304.826 128.973,304.582 129.040,304.382 128.963 C 304.181 128.886,303.957 128.920,303.884 129.038 C 303.725 129.296,301.447 129.171,300.989 128.880 C 300.653 128.666,300.502 128.622,299.912 128.567 C 299.147 128.495,296.248 125.527,295.595 124.148 C 294.404 121.631,295.161 116.840,296.914 115.802 C 297.365 115.535,297.867 114.558,297.867 113.947 C 297.867 113.101,290.570 106.043,289.620 105.971 C 288.896 105.916,288.148 106.573,282.207 112.488 M122.346 122.548 C 122.521 124.341,125.239 128.138,126.294 128.062 C 126.426 128.053,126.683 128.170,126.867 128.322 C 127.050 128.474,127.200 128.520,127.200 128.423 C 127.200 128.327,127.421 128.366,127.692 128.511 C 127.963 128.656,128.527 128.837,128.947 128.913 C 130.059 129.115,135.865 134.948,135.939 135.938 C 136.016 136.977,136.786 138.655,137.650 139.671 C 138.474 140.639,140.480 142.446,140.181 141.952 C 140.065 141.759,140.316 141.798,140.827 142.054 C 141.287 142.283,142.025 142.501,142.468 142.539 C 143.138 142.596,145.411 144.746,156.142 155.476 L 169.013 168.344 132.743 204.607 L 96.473 240.871 83.570 227.970 C 75.153 219.554,70.666 214.883,70.665 214.534 C 70.662 213.447,70.082 211.960,69.325 211.098 C 68.896 210.610,68.603 210.152,68.674 210.081 C 68.745 210.010,68.542 209.723,68.222 209.443 C 67.852 209.118,67.722 209.078,67.862 209.333 C 67.983 209.553,67.704 209.381,67.241 208.950 C 66.779 208.519,66.400 208.254,66.400 208.359 C 66.400 208.465,66.130 208.404,65.800 208.222 C 65.230 207.909,65.013 207.850,63.719 207.648 C 62.813 207.507,57.067 201.598,57.064 200.804 C 57.061 199.923,55.960 197.601,55.244 196.964 C 54.933 196.688,54.734 196.374,54.800 196.267 C 54.866 196.159,54.663 195.845,54.348 195.569 C 53.979 195.245,53.855 195.209,54.000 195.467 C 54.155 195.743,54.056 195.719,53.678 195.387 C 52.756 194.580,51.368 193.986,50.488 194.021 C 49.736 194.052,49.033 193.436,43.589 187.989 L 37.527 181.923 39.992 179.475 L 42.456 177.027 43.095 177.626 C 43.446 177.956,43.733 178.127,43.733 178.005 C 43.733 177.884,43.943 177.968,44.200 178.194 C 44.634 178.575,45.466 178.927,45.935 178.927 C 46.045 178.927,46.525 179.088,47.001 179.285 C 48.310 179.826,51.641 179.554,53.067 178.790 C 53.580 178.515,54.077 178.311,54.171 178.336 C 54.266 178.361,54.656 178.091,55.038 177.737 C 55.420 177.382,55.733 177.156,55.733 177.235 C 55.733 177.586,58.128 174.762,58.672 173.770 C 60.069 171.221,60.096 171.124,60.115 168.543 C 60.133 166.004,59.517 164.036,58.101 162.108 C 57.577 161.395,89.729 129.393,90.379 129.981 C 90.634 130.211,90.968 130.400,91.122 130.400 C 91.276 130.400,91.553 130.583,91.739 130.806 C 91.924 131.030,92.138 131.151,92.213 131.075 C 92.289 131.000,92.512 131.072,92.709 131.235 C 92.906 131.398,93.067 131.453,93.067 131.357 C 93.067 131.260,93.337 131.330,93.667 131.511 C 95.177 132.340,99.023 132.211,100.439 131.283 C 100.784 131.057,101.067 130.952,101.067 131.049 C 101.067 131.352,103.557 129.559,104.436 128.623 C 104.896 128.134,105.196 127.730,105.103 127.725 C 105.010 127.720,105.118 127.570,105.344 127.392 C 108.169 125.158,108.482 118.720,105.934 115.255 C 105.172 114.219,105.074 114.397,108.047 111.438 L 110.094 109.401 116.174 115.502 C 121.526 120.872,122.265 121.716,122.346 122.548 M292.047 111.913 L 294.370 114.226 293.833 114.981 C 291.366 118.445,291.296 124.644,293.700 126.639 C 293.935 126.834,294.074 127.080,294.010 127.184 C 293.945 127.289,294.623 128.086,295.517 128.954 C 296.410 129.823,297.045 130.353,296.928 130.133 C 296.794 129.882,296.954 129.933,297.357 130.270 C 298.158 130.939,299.733 131.820,299.733 131.599 C 299.733 131.509,299.883 131.529,300.067 131.643 C 300.727 132.056,304.726 132.336,304.943 131.985 C 305.008 131.880,305.508 131.710,306.055 131.607 C 306.601 131.505,307.371 131.191,307.765 130.910 C 308.160 130.630,308.661 130.400,308.879 130.400 C 309.098 130.400,309.355 130.196,309.450 129.946 C 309.585 129.596,313.299 133.167,325.729 145.595 L 341.833 161.698 341.365 162.382 C 338.944 165.923,338.824 171.445,341.113 174.020 C 341.384 174.324,341.547 174.631,341.476 174.702 C 341.405 174.773,342.081 175.544,342.978 176.415 C 343.874 177.287,344.513 177.820,344.396 177.600 C 344.279 177.380,344.563 177.552,345.025 177.983 C 345.488 178.414,345.867 178.681,345.867 178.577 C 345.867 178.473,346.137 178.564,346.467 178.779 C 347.056 179.164,348.106 179.420,349.774 179.586 C 350.237 179.633,350.739 179.746,350.889 179.839 C 351.040 179.933,351.244 179.879,351.342 179.720 C 351.440 179.560,351.677 179.490,351.868 179.563 C 352.058 179.637,352.290 179.621,352.382 179.529 C 352.474 179.438,352.695 179.333,352.874 179.297 C 354.098 179.050,354.497 178.918,354.816 178.654 C 355.014 178.489,355.332 178.444,355.522 178.553 C 355.711 178.663,355.781 178.658,355.677 178.542 C 355.573 178.426,355.930 178.106,356.470 177.831 L 357.453 177.330 359.779 179.645 L 362.105 181.960 356.075 187.980 C 352.759 191.291,349.946 194.015,349.823 194.033 C 349.700 194.052,349.570 194.090,349.533 194.118 C 349.497 194.147,349.149 194.212,348.761 194.264 C 348.373 194.316,347.684 194.550,347.230 194.784 C 346.777 195.019,346.314 195.224,346.203 195.239 C 345.703 195.310,345.347 195.539,345.458 195.719 C 345.524 195.827,345.252 196.157,344.851 196.453 C 344.034 197.057,342.626 199.727,342.539 200.837 C 342.465 201.772,336.610 207.733,335.667 207.834 C 335.324 207.870,334.899 207.990,334.722 208.099 C 334.545 208.209,334.310 208.243,334.200 208.175 C 334.090 208.107,333.168 208.640,332.151 209.359 C 331.134 210.078,330.380 210.667,330.476 210.667 C 330.572 210.667,330.354 211.103,329.992 211.637 C 329.351 212.582,328.716 214.396,328.861 214.867 C 328.901 214.997,323.104 220.935,315.980 228.065 L 303.026 241.027 266.796 204.796 L 230.567 168.566 243.483 155.656 C 257.006 142.141,256.453 142.623,259.106 142.044 C 261.017 141.626,263.712 138.043,263.729 135.897 C 263.732 135.618,265.066 134.043,266.733 132.354 C 269.542 129.507,271.056 128.208,270.514 129.107 C 270.341 129.395,270.389 129.393,270.755 129.095 C 271.007 128.891,271.290 128.801,271.385 128.896 C 271.479 128.990,271.766 128.878,272.022 128.647 C 272.421 128.286,272.876 128.110,273.642 128.020 C 274.868 127.877,277.333 124.072,277.333 122.321 C 277.333 121.876,289.148 109.625,289.595 109.605 C 289.665 109.602,290.768 110.641,292.047 111.913 M85.630 157.308 C 66.947 176.022,51.561 191.526,51.439 191.761 C 51.122 192.372,51.749 193.106,52.684 193.216 C 53.485 193.311,54.481 193.517,54.600 193.613 C 54.637 193.642,54.757 193.682,54.867 193.700 C 56.432 193.965,58.133 196.548,58.133 198.661 C 58.133 199.087,58.253 199.509,58.399 199.599 C 59.011 199.978,59.748 199.938,60.063 199.510 C 60.248 199.258,60.746 198.785,61.169 198.459 C 61.592 198.133,61.874 197.867,61.796 197.867 C 61.614 197.867,63.333 196.144,64.181 195.477 C 64.537 195.197,64.791 194.905,64.747 194.828 C 64.703 194.752,65.080 194.384,65.585 194.011 C 66.090 193.638,66.430 193.333,66.339 193.333 C 66.109 193.333,67.704 191.724,68.652 191.000 C 69.084 190.670,69.366 190.400,69.278 190.400 C 69.084 190.400,70.763 188.706,71.648 188.010 C 72.003 187.730,72.258 187.439,72.214 187.362 C 72.170 187.285,72.547 186.917,73.052 186.544 C 73.557 186.172,73.899 185.867,73.812 185.867 C 73.615 185.867,75.301 184.169,76.204 183.459 C 76.571 183.170,76.808 182.933,76.729 182.933 C 76.554 182.933,78.252 181.222,79.052 180.592 C 79.373 180.340,79.628 180.048,79.618 179.944 C 79.608 179.840,80.013 179.450,80.518 179.078 C 81.024 178.705,81.366 178.400,81.278 178.400 C 81.081 178.400,82.768 176.702,83.670 175.992 C 84.038 175.703,84.274 175.467,84.196 175.467 C 84.011 175.467,85.738 173.740,86.604 173.059 C 86.971 172.770,87.179 172.533,87.066 172.533 C 86.953 172.533,87.313 172.173,87.867 171.733 C 88.420 171.293,88.809 170.933,88.730 170.933 C 88.545 170.933,90.269 169.208,91.137 168.526 C 91.504 168.237,91.741 168.000,91.663 168.000 C 91.478 168.000,93.204 166.274,94.070 165.592 C 94.438 165.303,94.646 165.067,94.533 165.067 C 94.419 165.067,94.780 164.707,95.333 164.267 C 95.887 163.827,96.276 163.467,96.197 163.467 C 96.011 163.467,97.736 161.742,98.604 161.059 C 98.971 160.770,99.208 160.533,99.129 160.533 C 98.941 160.533,100.677 158.802,101.568 158.102 C 101.952 157.799,102.254 157.473,102.239 157.376 C 102.223 157.279,102.576 156.930,103.024 156.600 C 103.471 156.270,103.766 156.000,103.678 156.000 C 103.481 156.000,105.168 154.302,106.070 153.592 C 106.438 153.303,106.674 153.067,106.596 153.067 C 106.420 153.067,108.119 151.355,108.919 150.726 C 109.240 150.473,109.494 150.182,109.485 150.078 C 109.475 149.974,109.880 149.584,110.385 149.211 C 110.890 148.838,111.232 148.533,111.145 148.533 C 110.948 148.533,112.634 146.836,113.537 146.126 C 113.904 145.837,114.113 145.600,113.999 145.600 C 113.886 145.600,114.246 145.240,114.800 144.800 C 115.354 144.360,115.707 144.000,115.585 144.000 C 115.463 144.000,115.729 143.730,116.176 143.400 C 116.624 143.070,117.024 142.680,117.067 142.533 C 117.109 142.387,117.510 141.997,117.957 141.667 C 118.404 141.337,118.699 141.067,118.612 141.067 C 118.415 141.067,120.101 139.369,121.004 138.659 C 121.371 138.370,121.579 138.133,121.466 138.133 C 121.353 138.133,121.713 137.773,122.267 137.333 C 122.820 136.893,123.200 136.533,123.111 136.533 C 123.022 136.533,123.565 135.933,124.318 135.200 C 125.071 134.467,125.794 133.867,125.926 133.867 C 126.057 133.867,126.109 133.777,126.042 133.667 C 125.974 133.557,126.320 133.167,126.811 132.800 C 128.366 131.638,128.698 130.180,127.452 129.987 C 125.503 129.685,124.947 129.553,124.446 129.275 C 124.127 129.098,123.794 128.973,123.704 128.997 C 123.615 129.022,123.203 128.687,122.788 128.254 C 122.373 127.821,122.135 127.467,122.258 127.467 C 122.382 127.467,122.269 127.230,122.007 126.941 C 121.730 126.635,121.462 125.780,121.366 124.894 C 121.011 121.632,123.517 119.359,85.630 157.308 M278.548 123.717 C 278.316 123.973,278.133 124.652,278.133 125.258 C 278.133 126.575,276.860 128.573,275.481 129.421 C 274.870 129.796,274.641 129.854,274.799 129.593 C 275.001 129.258,274.970 129.253,274.596 129.556 C 274.354 129.752,274.040 129.840,273.897 129.752 C 273.754 129.664,273.560 129.715,273.467 129.867 C 273.373 130.018,273.199 130.082,273.080 130.008 C 272.795 129.832,271.467 130.882,271.467 131.284 C 271.467 131.455,286.897 147.028,305.757 165.889 C 342.823 202.959,341.098 201.362,341.472 198.970 C 341.780 197.003,342.280 195.841,343.261 194.813 C 343.814 194.233,344.267 193.858,344.267 193.979 C 344.267 194.100,344.455 194.042,344.685 193.852 C 344.915 193.661,345.429 193.489,345.827 193.471 C 346.225 193.452,346.696 193.346,346.875 193.236 C 347.054 193.126,347.200 193.106,347.200 193.194 C 347.200 193.281,347.440 193.224,347.733 193.067 C 349.042 192.366,349.168 192.500,314.200 157.565 C 280.507 123.903,279.363 122.817,278.548 123.717 M120.701 128.950 C 121.328 129.776,123.733 131.654,123.733 131.317 C 123.733 131.217,123.913 131.284,124.133 131.467 C 124.353 131.649,124.533 131.704,124.533 131.588 C 124.533 131.472,124.603 131.447,124.687 131.532 C 124.832 131.676,60.155 196.533,59.867 196.533 C 59.793 196.533,59.753 196.443,59.777 196.333 C 59.951 195.538,56.977 191.657,56.395 191.921 C 56.329 191.951,55.907 191.847,55.456 191.690 L 54.636 191.404 86.985 159.052 L 119.333 126.701 119.707 127.417 C 119.913 127.811,120.360 128.501,120.701 128.950 M344.548 191.430 C 344.150 191.529,342.581 192.517,341.857 193.123 C 341.196 193.677,340.316 195.042,340.122 195.816 C 340.023 196.211,339.865 196.533,339.771 196.533 C 339.676 196.533,325.094 182.027,307.365 164.298 C 278.009 134.941,274.197 130.983,275.824 131.545 C 276.681 131.841,279.446 128.913,279.857 127.275 C 280.023 126.617,282.181 128.713,312.484 158.952 C 331.895 178.322,344.778 191.372,344.548 191.430 M99.297 170.801 C 64.799 205.320,64.749 205.372,65.485 206.281 C 65.717 206.566,65.819 206.631,65.712 206.425 C 65.570 206.151,65.618 206.114,65.892 206.285 C 66.098 206.413,66.417 206.552,66.600 206.593 C 67.385 206.767,67.871 206.896,67.933 206.946 C 67.970 206.976,68.090 207.020,68.200 207.045 C 69.804 207.402,71.087 209.343,71.407 211.897 C 71.812 215.139,69.095 217.598,106.985 179.709 C 125.714 160.982,141.083 145.706,141.140 145.763 C 141.197 145.819,141.408 145.558,141.610 145.182 C 142.008 144.437,141.749 143.695,141.052 143.587 C 139.108 143.286,138.562 143.137,137.648 142.660 C 135.960 141.781,135.192 140.571,134.958 138.423 C 134.611 135.241,137.029 133.045,99.297 170.801 M265.223 137.574 C 264.991 137.831,264.800 138.382,264.800 138.798 C 264.800 141.115,262.365 143.160,259.409 143.327 C 258.656 143.369,257.600 144.135,257.600 144.639 C 257.600 145.232,326.465 213.824,326.908 213.672 C 327.573 213.443,328.000 212.768,328.000 211.946 C 328.000 210.117,330.199 207.400,331.953 207.061 C 332.199 207.013,332.400 206.955,332.400 206.931 C 332.400 206.907,332.765 206.860,333.212 206.827 C 334.301 206.745,334.667 206.483,334.667 205.784 C 334.667 205.064,267.110 137.388,266.220 137.217 C 265.894 137.154,265.464 137.308,265.223 137.574 M134.301 142.550 C 134.928 143.376,137.333 145.254,137.333 144.917 C 137.333 144.817,137.513 144.884,137.733 145.067 C 137.953 145.249,138.133 145.304,138.133 145.188 C 138.133 145.072,138.200 145.044,138.281 145.126 C 138.363 145.207,123.822 159.882,105.969 177.735 L 73.508 210.197 73.079 209.099 C 72.642 207.980,69.941 204.989,69.573 205.217 C 69.461 205.286,69.294 205.218,69.200 205.067 C 69.106 204.915,68.918 204.860,68.782 204.945 C 67.819 205.540,69.021 203.887,70.165 203.043 C 70.645 202.690,70.963 202.400,70.872 202.400 C 70.642 202.400,72.237 200.791,73.185 200.067 C 73.617 199.737,73.882 199.467,73.773 199.467 C 73.529 199.467,76.647 196.361,77.718 195.537 C 78.150 195.205,78.430 194.933,78.339 194.933 C 78.109 194.933,79.704 193.324,80.652 192.600 C 81.084 192.270,81.348 192.000,81.240 192.000 C 80.996 192.000,84.114 188.894,85.185 188.070 C 85.617 187.738,85.896 187.467,85.806 187.467 C 85.576 187.467,87.170 185.858,88.118 185.133 C 88.550 184.803,88.815 184.533,88.707 184.533 C 88.462 184.533,91.581 181.427,92.652 180.604 C 93.084 180.272,93.363 180.000,93.272 180.000 C 93.042 180.000,94.637 178.391,95.585 177.667 C 96.017 177.337,96.282 177.067,96.173 177.067 C 95.929 177.067,99.047 173.961,100.118 173.137 C 100.550 172.805,100.830 172.533,100.739 172.533 C 100.509 172.533,102.104 170.924,103.052 170.200 C 103.484 169.870,103.748 169.600,103.640 169.600 C 103.396 169.600,106.514 166.494,107.585 165.670 C 108.017 165.338,108.296 165.067,108.206 165.067 C 107.976 165.067,109.570 163.458,110.518 162.733 C 110.950 162.403,111.215 162.133,111.107 162.133 C 110.862 162.133,113.981 159.027,115.052 158.204 C 115.484 157.872,115.763 157.600,115.672 157.600 C 115.442 157.600,117.037 155.991,117.985 155.267 C 118.417 154.937,118.682 154.667,118.573 154.667 C 118.329 154.667,121.447 151.561,122.518 150.737 C 122.950 150.405,123.230 150.133,123.139 150.133 C 122.921 150.133,124.481 148.543,125.361 147.867 C 125.744 147.573,126.044 147.248,126.028 147.144 C 126.013 147.040,126.413 146.650,126.918 146.278 C 127.424 145.905,127.763 145.600,127.672 145.600 C 127.442 145.600,129.037 143.991,129.985 143.267 C 130.417 142.937,130.693 142.667,130.598 142.667 C 130.503 142.667,130.982 142.118,131.662 141.448 L 132.898 140.228 133.290 140.981 C 133.505 141.395,133.960 142.101,134.301 142.550 M299.068 172.800 C 316.817 190.547,331.277 205.076,331.203 205.087 C 330.393 205.209,329.977 205.402,329.036 206.094 C 327.821 206.988,326.788 208.357,326.518 209.432 C 326.421 209.818,326.265 210.133,326.172 210.133 C 325.929 210.133,261.333 145.510,261.333 145.267 C 261.333 145.157,261.543 145.063,261.800 145.058 C 262.057 145.054,262.494 144.877,262.773 144.667 C 263.051 144.456,263.368 144.339,263.477 144.407 C 263.791 144.600,265.570 142.637,266.076 141.540 C 266.327 140.994,266.593 140.544,266.665 140.540 C 266.738 140.536,281.319 155.053,299.068 172.800 M136.299 207.777 C 127.269 216.812,121.851 222.424,121.742 222.860 C 121.427 224.116,122.568 224.820,124.933 224.826 C 125.373 224.827,125.913 224.897,126.133 224.981 C 126.534 225.135,126.872 225.199,128.435 225.414 C 128.894 225.478,129.434 225.633,129.635 225.761 C 129.836 225.888,130.180 225.998,130.400 226.005 C 130.620 226.013,131.040 226.153,131.333 226.316 C 131.627 226.480,131.957 226.626,132.067 226.640 C 132.941 226.755,134.438 227.418,135.028 227.952 C 135.300 228.198,135.600 228.384,135.695 228.365 C 136.087 228.286,137.066 228.815,137.932 229.576 C 138.441 230.023,138.911 230.333,138.978 230.266 C 139.045 230.199,139.627 230.682,140.272 231.339 C 140.917 231.996,141.570 232.533,141.723 232.533 C 141.877 232.533,147.212 237.744,153.580 244.113 C 161.544 252.079,165.321 255.681,165.681 255.654 C 166.306 255.607,183.604 238.428,183.870 237.589 C 184.026 237.098,182.278 235.232,171.801 224.708 C 160.892 213.748,157.333 209.912,157.333 209.111 C 157.333 208.976,157.150 208.714,156.927 208.528 C 156.703 208.342,156.579 208.132,156.651 208.060 C 156.724 207.988,156.546 207.628,156.258 207.262 C 155.969 206.895,155.733 206.483,155.733 206.347 C 155.733 206.211,155.432 205.441,155.065 204.637 C 154.292 202.948,153.140 198.379,152.894 196.029 C 152.720 194.358,152.354 193.794,151.275 193.531 C 150.775 193.410,148.422 195.649,136.299 207.777 M247.041 194.251 C 246.820 194.567,246.667 195.446,246.667 196.398 C 246.667 197.286,246.419 198.849,246.117 199.872 C 245.815 200.896,245.472 202.178,245.355 202.721 C 245.154 203.656,244.130 206.008,243.289 207.467 C 243.077 207.833,242.729 208.523,242.515 209.000 C 242.301 209.477,242.008 209.867,241.863 209.867 C 241.718 209.867,241.600 209.995,241.600 210.152 C 241.600 210.310,241.450 210.597,241.267 210.792 C 241.083 210.987,240.573 211.606,240.133 212.169 C 239.693 212.731,234.089 218.451,227.679 224.881 C 221.269 231.310,215.951 236.800,215.862 237.080 C 215.634 237.799,215.254 237.385,225.106 247.154 L 234.068 256.042 235.157 255.287 C 235.756 254.873,236.251 254.404,236.257 254.245 C 236.262 254.087,236.565 253.797,236.929 253.602 C 237.293 253.407,237.655 253.046,237.733 252.800 C 237.812 252.554,238.174 252.193,238.538 251.998 C 238.902 251.803,239.200 251.513,239.201 251.355 C 239.201 251.196,239.561 250.827,240.000 250.533 C 240.439 250.240,240.799 249.870,240.799 249.712 C 240.800 249.553,241.100 249.263,241.467 249.067 C 241.833 248.870,242.133 248.557,242.133 248.370 C 242.133 248.183,242.493 247.817,242.933 247.558 C 243.373 247.298,243.733 246.951,243.733 246.788 C 243.733 246.624,244.031 246.331,244.396 246.136 C 244.760 245.941,245.122 245.580,245.200 245.333 C 245.278 245.087,245.640 244.726,246.004 244.531 C 246.369 244.336,246.667 244.047,246.667 243.888 C 246.668 243.730,247.028 243.360,247.467 243.067 C 247.906 242.773,248.265 242.404,248.266 242.245 C 248.266 242.087,248.567 241.796,248.933 241.600 C 249.300 241.404,249.600 241.090,249.600 240.903 C 249.600 240.716,249.960 240.351,250.400 240.091 C 250.840 239.831,251.200 239.532,251.200 239.427 C 251.200 239.168,253.651 236.800,253.920 236.800 C 254.037 236.800,254.134 236.650,254.134 236.467 C 254.135 236.283,254.494 235.893,254.933 235.600 C 255.372 235.307,255.732 234.937,255.733 234.778 C 255.733 234.620,256.033 234.330,256.400 234.133 C 256.767 233.937,257.067 233.629,257.067 233.449 C 257.067 233.269,257.656 232.744,258.376 232.282 C 259.097 231.820,259.750 231.275,259.828 231.071 C 259.976 230.685,263.128 228.533,263.545 228.533 C 263.677 228.533,264.140 228.280,264.574 227.971 C 265.009 227.662,265.437 227.482,265.527 227.571 C 265.617 227.661,265.893 227.551,266.142 227.326 C 266.390 227.101,266.862 226.865,267.191 226.802 C 267.519 226.739,267.937 226.563,268.118 226.412 C 268.300 226.261,268.525 226.214,268.618 226.307 C 268.711 226.400,268.940 226.353,269.127 226.202 C 269.314 226.051,269.827 225.852,270.267 225.760 C 270.707 225.667,271.367 225.522,271.733 225.438 C 272.100 225.354,272.760 225.246,273.200 225.199 C 273.640 225.151,274.000 225.086,274.000 225.053 C 274.000 225.021,274.623 224.970,275.384 224.940 C 276.929 224.881,277.726 224.443,278.004 223.501 C 278.170 222.936,276.619 221.296,263.566 208.235 C 247.862 192.522,248.107 192.729,247.041 194.251 M150.515 199.782 C 150.726 201.376,152.145 205.882,152.812 207.082 C 153.639 208.566,154.244 209.732,154.259 209.867 C 154.338 210.608,158.004 214.530,168.364 224.958 L 180.594 237.268 173.059 244.834 L 165.523 252.400 155.362 242.186 C 145.588 232.362,139.655 226.735,139.200 226.858 C 139.082 226.890,138.838 226.740,138.660 226.525 C 138.481 226.309,138.218 226.133,138.075 226.133 C 137.932 226.133,137.437 225.864,136.974 225.534 C 136.512 225.204,136.043 224.919,135.933 224.900 C 135.823 224.882,135.673 224.837,135.600 224.800 C 135.527 224.763,135.377 224.711,135.267 224.684 C 135.157 224.657,134.614 224.437,134.062 224.195 C 133.509 223.954,133.029 223.765,132.995 223.776 C 132.961 223.787,132.483 223.608,131.933 223.378 C 131.383 223.149,130.933 223.029,130.933 223.113 C 130.933 223.197,130.753 223.116,130.533 222.933 C 130.313 222.751,130.133 222.680,130.133 222.777 C 130.133 222.873,129.868 222.810,129.545 222.637 C 129.221 222.464,128.531 222.278,128.011 222.224 C 127.492 222.170,126.925 222.107,126.753 222.085 C 126.459 222.047,149.806 198.442,150.166 198.413 C 150.257 198.406,150.414 199.022,150.515 199.782 M261.456 210.123 C 267.902 216.570,273.092 221.930,272.989 222.033 C 272.886 222.136,272.472 222.262,272.068 222.312 C 270.856 222.464,270.550 222.538,270.182 222.768 C 269.989 222.888,269.760 222.916,269.673 222.829 C 269.587 222.742,269.367 222.794,269.186 222.945 C 269.005 223.096,268.754 223.189,268.628 223.153 C 268.503 223.116,268.130 223.236,267.800 223.419 C 267.470 223.602,267.200 223.685,267.200 223.603 C 267.200 223.521,266.900 223.651,266.533 223.891 C 266.167 224.131,265.867 224.240,265.867 224.133 C 265.867 224.026,265.571 224.132,265.209 224.369 C 264.848 224.606,264.416 224.800,264.251 224.800 C 264.085 224.800,263.601 225.048,263.176 225.350 C 262.751 225.653,262.264 225.814,262.094 225.709 C 261.901 225.590,261.856 225.634,261.975 225.825 C 262.079 225.995,262.038 226.148,261.882 226.167 C 261.727 226.185,261.510 226.217,261.400 226.238 C 260.925 226.328,257.856 228.587,257.627 229.016 C 257.488 229.276,257.065 229.653,256.687 229.856 C 256.309 230.058,256.000 230.353,255.999 230.512 C 255.999 230.670,255.639 231.040,255.200 231.333 C 254.761 231.627,254.401 231.996,254.401 232.155 C 254.400 232.313,254.102 232.603,253.738 232.798 C 253.374 232.993,253.012 233.354,252.933 233.600 C 252.855 233.846,252.493 234.207,252.129 234.402 C 251.765 234.597,251.466 234.887,251.466 235.045 C 251.465 235.204,251.106 235.573,250.667 235.867 C 250.228 236.160,249.868 236.550,249.867 236.733 C 249.867 236.917,249.770 237.067,249.653 237.067 C 249.377 237.067,246.933 239.438,246.933 239.706 C 246.933 239.818,246.635 240.069,246.271 240.264 C 245.907 240.459,245.545 240.820,245.467 241.067 C 245.388 241.313,245.026 241.674,244.662 241.869 C 244.298 242.064,244.000 242.353,243.999 242.512 C 243.999 242.670,243.639 243.040,243.200 243.333 C 242.761 243.627,242.401 244.017,242.401 244.200 C 242.400 244.383,242.304 244.533,242.186 244.533 C 241.910 244.533,239.467 246.905,239.467 247.173 C 239.467 247.285,239.169 247.536,238.804 247.731 C 238.440 247.926,238.078 248.287,238.000 248.533 C 237.922 248.780,237.560 249.141,237.196 249.336 C 236.831 249.531,236.533 249.820,236.533 249.978 C 236.532 250.137,236.172 250.507,235.733 250.800 C 235.294 251.093,234.935 251.440,234.934 251.571 C 234.934 251.701,234.723 251.965,234.467 252.158 C 234.049 252.471,233.208 251.717,226.501 245.023 L 219.001 237.538 226.711 229.836 C 230.952 225.599,234.537 222.133,234.677 222.133 C 234.818 222.133,234.906 222.043,234.873 221.933 C 234.840 221.823,236.490 220.045,238.540 217.982 C 242.723 213.771,243.733 212.659,243.733 212.269 C 243.733 212.121,243.853 212.000,244.000 212.000 C 244.147 212.000,244.267 211.820,244.267 211.600 C 244.267 211.380,244.393 211.200,244.547 211.200 C 244.701 211.200,245.012 210.757,245.238 210.216 C 245.464 209.675,245.938 208.807,246.291 208.288 C 246.644 207.768,246.933 207.162,246.933 206.942 C 246.933 206.721,247.219 205.939,247.567 205.204 C 247.916 204.468,248.486 202.637,248.833 201.133 C 249.180 199.630,249.525 198.400,249.600 198.400 C 249.675 198.400,255.010 203.675,261.456 210.123 M184.687 238.991 C 184.456 239.121,184.267 239.176,184.267 239.114 C 184.267 239.053,180.361 242.907,175.587 247.681 C 165.291 257.975,165.860 256.557,170.287 260.873 C 174.303 264.789,174.153 264.757,176.690 262.252 C 177.796 261.160,178.814 260.267,178.951 260.267 C 179.088 260.267,179.170 260.174,179.133 260.061 C 179.051 259.809,186.091 252.800,186.426 252.800 C 186.559 252.800,186.637 252.706,186.600 252.590 C 186.563 252.475,187.806 251.125,189.361 249.590 C 193.245 245.759,193.254 246.241,189.215 242.158 C 185.885 238.794,185.510 238.531,184.687 238.991 M210.709 241.889 C 208.888 243.710,207.446 245.381,207.344 245.786 C 207.131 246.633,224.264 264.104,225.409 264.208 C 226.157 264.276,227.200 263.749,227.200 263.303 C 227.200 263.116,227.560 262.751,228.000 262.491 C 228.440 262.231,228.800 261.884,228.800 261.721 C 228.800 261.557,229.098 261.264,229.462 261.069 C 229.826 260.874,230.188 260.513,230.267 260.267 C 230.345 260.020,230.707 259.659,231.071 259.464 C 231.435 259.269,231.733 258.963,231.733 258.783 C 231.733 258.604,231.898 258.394,232.099 258.317 C 232.300 258.240,232.548 257.845,232.649 257.440 C 232.856 256.617,215.495 238.822,214.406 238.740 C 214.082 238.716,212.737 239.862,210.709 241.889 M181.463 253.211 L 173.905 260.749 172.163 259.007 L 170.421 257.265 177.944 249.723 L 185.467 242.181 187.243 243.927 L 189.020 245.673 181.463 253.211 M229.173 257.441 C 229.111 257.602,228.702 257.973,228.264 258.267 C 227.826 258.560,227.468 258.950,227.467 259.133 C 227.467 259.317,227.359 259.467,227.228 259.467 C 227.097 259.467,226.707 259.763,226.361 260.126 L 225.733 260.784 218.228 253.289 L 210.723 245.793 212.495 243.992 L 214.267 242.191 221.776 249.670 C 225.906 253.783,229.235 257.280,229.173 257.441 M184.698 255.867 C 181.353 259.240,178.509 262.180,178.378 262.400 C 178.248 262.620,178.140 266.701,178.137 271.469 L 178.133 280.138 184.467 286.424 C 187.950 289.881,190.980 292.692,191.200 292.671 C 191.420 292.649,191.803 292.730,192.050 292.850 C 192.302 292.971,192.569 292.958,192.654 292.820 C 192.744 292.674,193.132 292.666,193.600 292.800 C 194.068 292.934,194.456 292.926,194.546 292.780 C 194.639 292.629,194.896 292.637,195.200 292.800 C 195.536 292.980,195.756 292.980,195.867 292.800 C 195.975 292.625,196.199 292.621,196.514 292.790 C 196.780 292.932,197.073 292.972,197.166 292.878 C 197.418 292.626,199.266 292.610,199.784 292.855 C 200.040 292.976,200.306 292.953,200.400 292.800 C 200.511 292.620,200.731 292.620,201.067 292.800 C 201.402 292.980,201.622 292.980,201.733 292.800 C 201.844 292.620,202.064 292.620,202.400 292.800 C 202.710 292.966,202.960 292.972,203.056 292.817 C 203.210 292.568,204.040 292.628,204.516 292.923 C 204.652 293.007,204.839 292.953,204.931 292.804 C 205.044 292.621,205.263 292.619,205.600 292.800 C 205.936 292.980,206.156 292.980,206.267 292.800 C 206.375 292.625,206.599 292.621,206.914 292.790 C 207.180 292.932,207.482 292.962,207.587 292.857 C 207.768 292.677,207.868 292.647,208.552 292.567 C 208.709 292.548,211.619 289.766,215.019 286.384 L 221.200 280.234 221.261 271.390 L 221.321 262.546 215.046 256.251 C 211.594 252.789,208.627 249.935,208.452 249.910 C 208.277 249.885,204.229 249.835,199.457 249.799 L 190.781 249.733 184.698 255.867 M195.668 252.893 C 195.830 252.993,196.039 252.953,196.131 252.804 C 196.244 252.621,196.463 252.619,196.800 252.800 C 197.076 252.947,197.359 252.974,197.430 252.859 C 197.566 252.640,199.562 252.677,200.167 252.909 C 200.359 252.983,200.587 252.928,200.674 252.788 C 200.774 252.626,201.016 252.630,201.333 252.800 C 201.609 252.947,201.893 252.974,201.964 252.859 C 202.099 252.640,204.095 252.677,204.701 252.909 C 204.893 252.983,205.121 252.928,205.208 252.788 C 205.308 252.625,205.539 252.624,205.842 252.787 C 206.162 252.958,206.419 252.941,206.626 252.734 C 206.858 252.502,208.306 253.795,212.549 258.024 L 218.165 263.622 218.142 271.304 L 218.118 278.986 212.740 284.360 L 207.362 289.733 199.748 289.768 L 192.133 289.803 186.600 284.304 L 181.067 278.805 181.067 271.284 C 181.067 263.815,181.071 263.761,181.659 263.348 C 181.985 263.120,182.154 262.933,182.034 262.933 C 181.914 262.933,182.806 261.973,184.016 260.800 C 185.227 259.627,186.318 258.667,186.442 258.667 C 186.565 258.667,186.639 258.577,186.604 258.467 C 186.527 258.219,189.036 255.733,189.363 255.733 C 189.493 255.733,189.570 255.632,189.533 255.508 C 189.424 255.137,192.075 252.772,192.443 252.913 C 192.630 252.985,192.835 252.959,192.899 252.855 C 193.046 252.617,195.271 252.648,195.668 252.893 M198.304 253.519 C 198.248 253.574,197.737 253.655,197.168 253.697 C 196.599 253.740,195.849 253.928,195.501 254.114 C 194.985 254.391,194.908 254.390,195.083 254.107 C 195.200 253.917,194.915 254.034,194.448 254.366 C 193.982 254.698,193.600 254.897,193.600 254.809 C 193.600 254.720,193.330 254.802,193.000 254.989 C 192.670 255.177,192.280 255.334,192.133 255.339 C 191.987 255.343,190.847 256.044,189.600 256.896 C 182.279 261.902,179.295 273.887,183.963 279.533 C 184.176 279.790,184.258 280.000,184.147 280.000 C 183.789 280.000,187.170 283.652,189.133 285.385 C 190.181 286.310,190.934 286.887,190.806 286.667 C 190.616 286.338,190.666 286.343,191.087 286.692 C 191.740 287.234,194.101 288.359,194.800 288.462 C 195.093 288.504,195.513 288.616,195.733 288.710 C 196.790 289.160,201.244 289.212,202.400 288.787 C 202.473 288.761,202.653 288.715,202.800 288.687 C 202.947 288.659,203.277 288.553,203.533 288.451 C 203.790 288.350,204.210 288.184,204.467 288.082 C 204.723 287.980,205.062 287.888,205.219 287.877 C 205.375 287.867,205.821 287.650,206.209 287.396 C 206.597 287.141,207.049 286.933,207.213 286.933 C 207.612 286.933,211.985 283.927,211.993 283.648 C 211.997 283.527,212.150 283.261,212.333 283.057 C 213.348 281.925,215.200 279.296,215.200 278.986 C 215.200 278.835,215.514 278.085,215.898 277.321 C 217.699 273.735,217.509 266.269,215.559 263.979 C 215.361 263.747,215.200 263.439,215.200 263.294 C 215.200 263.148,214.784 262.544,214.276 261.950 C 213.768 261.356,213.404 260.818,213.468 260.754 C 213.532 260.690,212.671 259.744,211.556 258.652 C 210.440 257.560,209.622 256.847,209.738 257.067 C 209.854 257.287,209.594 257.137,209.160 256.733 C 208.726 256.330,208.269 256.000,208.144 256.000 C 208.019 256.000,207.516 255.694,207.025 255.320 C 206.535 254.946,206.133 254.720,206.133 254.819 C 206.133 254.918,205.953 254.849,205.733 254.667 C 205.513 254.484,205.333 254.403,205.333 254.487 C 205.333 254.571,204.913 254.464,204.400 254.249 C 203.887 254.035,203.467 253.918,203.467 253.990 C 203.467 254.061,203.137 253.992,202.733 253.835 C 202.029 253.561,198.513 253.310,198.304 253.519 M199.869 256.530 C 199.961 256.380,200.169 256.340,200.331 256.440 C 200.492 256.539,201.054 256.648,201.579 256.682 C 203.147 256.782,204.089 257.055,204.905 257.646 C 205.329 257.954,205.578 258.039,205.459 257.836 C 205.336 257.627,205.473 257.669,205.775 257.933 C 206.069 258.190,206.429 258.400,206.577 258.400 C 207.446 258.400,213.084 264.563,212.889 265.300 C 212.865 265.392,212.946 265.588,213.069 265.736 C 213.396 266.130,214.400 270.105,214.400 271.006 C 214.400 273.060,212.172 279.200,211.426 279.200 C 211.302 279.200,211.200 279.380,211.200 279.600 C 211.200 279.820,211.080 280.000,210.933 280.000 C 210.787 280.000,210.697 280.094,210.733 280.209 C 210.830 280.514,209.141 282.147,207.600 283.238 C 205.751 284.547,205.466 284.701,205.745 284.241 C 205.871 284.035,205.528 284.203,204.985 284.615 C 204.442 285.026,203.886 285.294,203.750 285.210 C 203.615 285.127,203.423 285.188,203.325 285.347 C 203.226 285.506,202.982 285.573,202.782 285.496 C 202.581 285.420,202.341 285.480,202.248 285.630 C 202.155 285.780,201.915 285.840,201.715 285.763 C 201.514 285.686,201.290 285.721,201.216 285.841 C 201.108 286.015,196.667 286.049,196.667 285.876 C 196.667 285.849,196.367 285.775,196.000 285.710 C 195.633 285.646,195.153 285.516,194.933 285.420 C 194.713 285.324,194.473 285.231,194.400 285.212 C 193.871 285.076,192.272 284.086,191.667 283.520 C 191.263 283.142,190.933 282.943,190.933 283.076 C 190.933 283.209,190.159 282.551,189.213 281.613 C 188.267 280.675,187.544 279.824,187.607 279.723 C 187.669 279.621,187.474 279.315,187.173 279.042 C 183.784 275.975,183.962 268.324,187.546 263.067 C 188.797 261.231,192.428 258.133,193.328 258.133 C 193.488 258.133,193.915 257.940,194.276 257.703 C 194.638 257.466,194.933 257.350,194.933 257.445 C 194.933 257.541,195.203 257.469,195.533 257.286 C 195.863 257.103,196.236 256.983,196.361 257.019 C 196.487 257.056,196.727 256.978,196.895 256.846 C 197.063 256.714,197.475 256.630,197.811 256.659 C 198.148 256.689,198.485 256.612,198.561 256.489 C 198.637 256.366,198.924 256.386,199.200 256.533 C 199.537 256.714,199.756 256.713,199.869 256.530 " stroke="none" fill="#24242c" fill-rule="evenodd"></path></g></svg>