<svg aria-hidden="true" style="position: absolute; width: 0; height: 0; overflow: hidden;" version="1.1" xmlns="http://www.w3.org/2000/svg" xmlns:xlink="http://www.w3.org/1999/xlink">
<defs>
<symbol id="icon-office" viewBox="0 0 32 32">
<path d="M0 32h16v-32h-16v32zM10 4h4v4h-4v-4zM10 12h4v4h-4v-4zM10 20h4v4h-4v-4zM2 4h4v4h-4v-4zM2 12h4v4h-4v-4zM2 20h4v4h-4v-4zM18 10h14v2h-14zM18 32h4v-8h6v8h4v-18h-14z"></path>
</symbol>
<symbol id="icon-envelop" viewBox="0 0 32 32">
<path d="M29 4h-26c-1.65 0-3 1.35-3 3v20c0 1.65 1.35 3 3 3h26c1.65 0 3-1.35 3-3v-20c0-1.65-1.35-3-3-3zM12.461 17.199l-8.461 6.59v-15.676l8.461 9.086zM5.512 8h20.976l-10.488 7.875-10.488-7.875zM12.79 17.553l3.21 3.447 3.21-3.447 6.58 8.447h-19.579l6.58-8.447zM19.539 17.199l8.461-9.086v15.676l-8.461-6.59z"></path>
</symbol>
<symbol id="icon-mobile2" viewBox="0 0 32 32">
<path d="M24 0h-18c-1.1 0-2 0.9-2 2v28c0 1.1 0.9 2 2 2h18c1.1 0 2-0.9 2-2v-28c0-1.1-0.9-2-2-2zM15 30.556c-0.859 0-1.556-0.697-1.556-1.556s0.697-1.556 1.556-1.556 1.556 0.697 1.556 1.556-0.697 1.556-1.556 1.556zM24 26h-18v-22h18v22z"></path>
</symbol>
<symbol id="icon-facebook2" viewBox="0 0 32 32">
<path d="M29 0h-26c-1.65 0-3 1.35-3 3v26c0 1.65 1.35 3 3 3h13v-14h-4v-4h4v-2c0-3.306 2.694-6 6-6h4v4h-4c-1.1 0-2 0.9-2 2v2h6l-1 4h-5v14h9c1.65 0 3-1.35 3-3v-26c0-1.65-1.35-3-3-3z"></path>
</symbol>
<symbol id="icon-instagram" viewBox="0 0 32 32">
<path d="M16 2.881c4.275 0 4.781 0.019 6.462 0.094 1.563 0.069 2.406 0.331 2.969 0.55 0.744 0.288 1.281 0.638 1.837 1.194 0.563 0.563 0.906 1.094 1.2 1.838 0.219 0.563 0.481 1.412 0.55 2.969 0.075 1.688 0.094 2.194 0.094 6.463s-0.019 4.781-0.094 6.463c-0.069 1.563-0.331 2.406-0.55 2.969-0.288 0.744-0.637 1.281-1.194 1.837-0.563 0.563-1.094 0.906-1.837 1.2-0.563 0.219-1.413 0.481-2.969 0.55-1.688 0.075-2.194 0.094-6.463 0.094s-4.781-0.019-6.463-0.094c-1.563-0.069-2.406-0.331-2.969-0.55-0.744-0.288-1.281-0.637-1.838-1.194-0.563-0.563-0.906-1.094-1.2-1.837-0.219-0.563-0.481-1.413-0.55-2.969-0.075-1.688-0.094-2.194-0.094-6.463s0.019-4.781 0.094-6.463c0.069-1.563 0.331-2.406 0.55-2.969 0.288-0.744 0.638-1.281 1.194-1.838 0.563-0.563 1.094-0.906 1.838-1.2 0.563-0.219 1.412-0.481 2.969-0.55 1.681-0.075 2.188-0.094 6.463-0.094zM16 0c-4.344 0-4.887 0.019-6.594 0.094-1.7 0.075-2.869 0.35-3.881 0.744-1.056 0.412-1.95 0.956-2.837 1.85-0.894 0.888-1.438 1.781-1.85 2.831-0.394 1.019-0.669 2.181-0.744 3.881-0.075 1.713-0.094 2.256-0.094 6.6s0.019 4.887 0.094 6.594c0.075 1.7 0.35 2.869 0.744 3.881 0.413 1.056 0.956 1.95 1.85 2.837 0.887 0.887 1.781 1.438 2.831 1.844 1.019 0.394 2.181 0.669 3.881 0.744 1.706 0.075 2.25 0.094 6.594 0.094s4.888-0.019 6.594-0.094c1.7-0.075 2.869-0.35 3.881-0.744 1.050-0.406 1.944-0.956 2.831-1.844s1.438-1.781 1.844-2.831c0.394-1.019 0.669-2.181 0.744-3.881 0.075-1.706 0.094-2.25 0.094-6.594s-0.019-4.887-0.094-6.594c-0.075-1.7-0.35-2.869-0.744-3.881-0.394-1.063-0.938-1.956-1.831-2.844-0.887-0.887-1.781-1.438-2.831-1.844-1.019-0.394-2.181-0.669-3.881-0.744-1.712-0.081-2.256-0.1-6.6-0.1v0z"></path>
<path d="M16 7.781c-4.537 0-8.219 3.681-8.219 8.219s3.681 8.219 8.219 8.219 8.219-3.681 8.219-8.219c0-4.537-3.681-8.219-8.219-8.219zM16 21.331c-2.944 0-5.331-2.387-5.331-5.331s2.387-5.331 5.331-5.331c2.944 0 5.331 2.387 5.331 5.331s-2.387 5.331-5.331 5.331z"></path>
<path d="M26.462 7.456c0 1.060-0.859 1.919-1.919 1.919s-1.919-0.859-1.919-1.919c0-1.060 0.859-1.919 1.919-1.919s1.919 0.859 1.919 1.919z"></path>
</symbol>
<symbol id="icon-emole" viewBox="0 0 62 32">
<path d="M59.078 26.544c-0.393 0-0.706 0.128-0.94 0.384s-0.371 0.61-0.413 1.063h2.559c0-0.467-0.104-0.825-0.313-1.074s-0.506-0.373-0.893-0.373zM59.279 30.996c-0.724 0-1.294-0.22-1.713-0.661s-0.628-1.052-0.628-1.835c0-0.789 0.194-1.416 0.583-1.88s0.91-0.697 1.565-0.697c0.613 0 1.098 0.202 1.456 0.605s0.536 0.936 0.536 1.597v0.469h-3.371c0.015 0.575 0.16 1.011 0.435 1.308s0.663 0.447 1.163 0.447c0.527 0 1.048-0.11 1.563-0.33v0.661c-0.262 0.113-0.51 0.194-0.743 0.243s-0.516 0.074-0.846 0.074z"></path>
<path d="M55.711 25.923c0.217 0 0.412 0.018 0.585 0.054l-0.103 0.688c-0.202-0.045-0.381-0.067-0.536-0.067-0.396 0-0.735 0.161-1.016 0.482s-0.422 0.722-0.422 1.202v2.626h-0.741v-4.894h0.612l0.085 0.906h0.036c0.182-0.318 0.401-0.564 0.657-0.737s0.537-0.259 0.844-0.259z"></path>
<path d="M48.562 26.013v3.175c0 0.399 0.091 0.697 0.272 0.893s0.466 0.295 0.853 0.295c0.512 0 0.887-0.14 1.123-0.42s0.355-0.737 0.355-1.371v-2.572h0.741v4.894h-0.612l-0.107-0.656h-0.040c-0.152 0.241-0.362 0.426-0.632 0.554s-0.577 0.192-0.922 0.192c-0.595 0-1.041-0.141-1.337-0.424s-0.444-0.735-0.444-1.358v-3.202h0.75z"></path>
<path d="M46.217 30.384c0.131 0 0.257-0.009 0.379-0.029s0.219-0.040 0.29-0.060v0.567c-0.081 0.039-0.199 0.071-0.355 0.096s-0.297 0.038-0.422 0.038c-0.947 0-1.42-0.499-1.42-1.496v-2.912h-0.701v-0.357l0.701-0.308 0.313-1.045h0.429v1.134h1.42v0.576h-1.42v2.88c0 0.295 0.070 0.521 0.21 0.679s0.332 0.237 0.576 0.237z"></path>
<path d="M39.72 26.013v3.175c0 0.399 0.091 0.697 0.272 0.893s0.466 0.295 0.853 0.295c0.512 0 0.887-0.14 1.123-0.42s0.355-0.737 0.355-1.371v-2.572h0.741v4.894h-0.612l-0.107-0.656h-0.040c-0.152 0.241-0.362 0.426-0.632 0.554s-0.577 0.192-0.922 0.192c-0.595 0-1.041-0.141-1.337-0.424s-0.444-0.735-0.444-1.358v-3.202h0.75z"></path>
<path d="M38.13 26.589h-1.246v4.318h-0.741v-4.318h-0.875v-0.335l0.875-0.268v-0.272c0-1.203 0.525-1.804 1.577-1.804 0.259 0 0.563 0.052 0.911 0.156l-0.192 0.594c-0.286-0.092-0.53-0.138-0.732-0.138-0.28 0-0.487 0.093-0.621 0.279s-0.201 0.485-0.201 0.896v0.317h1.246v0.576z"></path>
<path d="M30.283 26.544c-0.393 0-0.706 0.128-0.94 0.384s-0.372 0.61-0.413 1.063h2.559c0-0.467-0.105-0.825-0.313-1.074s-0.506-0.373-0.893-0.373zM30.485 30.996c-0.724 0-1.294-0.22-1.713-0.661s-0.628-1.052-0.628-1.835c0-0.789 0.194-1.416 0.583-1.88s0.91-0.697 1.565-0.697c0.613 0 1.099 0.202 1.456 0.605s0.536 0.936 0.536 1.597v0.469h-3.371c0.015 0.575 0.16 1.011 0.435 1.308s0.663 0.447 1.163 0.447c0.527 0 1.048-0.11 1.563-0.33v0.661c-0.262 0.113-0.51 0.194-0.743 0.243s-0.516 0.074-0.846 0.074z"></path>
<path d="M26.153 30.907v-3.166c0-0.399-0.091-0.697-0.272-0.893s-0.466-0.295-0.853-0.295c-0.515 0-0.891 0.14-1.128 0.42s-0.355 0.738-0.355 1.375v2.559h-0.741v-6.949h0.741v2.103c0 0.253-0.012 0.463-0.036 0.63h0.045c0.146-0.235 0.354-0.42 0.623-0.556s0.577-0.203 0.922-0.203c0.598 0 1.047 0.142 1.346 0.427s0.449 0.736 0.449 1.355v3.193h-0.741z"></path>
<path d="M21.156 30.384c0.131 0 0.257-0.009 0.379-0.029s0.219-0.040 0.29-0.060v0.567c-0.080 0.039-0.199 0.071-0.355 0.096s-0.297 0.038-0.422 0.038c-0.947 0-1.42-0.499-1.42-1.496v-2.912h-0.701v-0.357l0.701-0.308 0.313-1.045h0.429v1.134h1.42v0.576h-1.42v2.88c0 0.295 0.070 0.521 0.21 0.679s0.332 0.237 0.576 0.237z"></path>
<path d="M15.627 30.907h-0.741v-6.949h0.741z"></path>
<path d="M11.622 26.544c-0.393 0-0.706 0.128-0.94 0.384s-0.371 0.61-0.413 1.063h2.559c0-0.467-0.104-0.825-0.313-1.074s-0.506-0.373-0.893-0.373zM11.823 30.996c-0.724 0-1.294-0.22-1.713-0.661s-0.628-1.052-0.628-1.835c0-0.789 0.194-1.416 0.583-1.88s0.91-0.697 1.565-0.697c0.613 0 1.099 0.202 1.456 0.605s0.536 0.936 0.536 1.597v0.469h-3.371c0.015 0.575 0.16 1.011 0.435 1.308s0.663 0.447 1.163 0.447c0.527 0 1.048-0.11 1.563-0.33v0.661c-0.262 0.113-0.51 0.194-0.743 0.243s-0.516 0.074-0.846 0.074z"></path>
<path d="M6.49 26.544c-0.393 0-0.706 0.128-0.94 0.384s-0.371 0.61-0.413 1.063h2.559c0-0.467-0.104-0.825-0.313-1.074s-0.506-0.373-0.893-0.373zM6.692 30.996c-0.724 0-1.294-0.22-1.713-0.661s-0.628-1.052-0.628-1.835c0-0.789 0.194-1.416 0.583-1.88s0.91-0.697 1.565-0.697c0.613 0 1.099 0.202 1.456 0.605s0.536 0.936 0.536 1.597v0.469h-3.371c0.015 0.575 0.16 1.011 0.435 1.308s0.663 0.447 1.163 0.447c0.527 0 1.048-0.11 1.563-0.33v0.661c-0.262 0.113-0.51 0.194-0.743 0.243s-0.516 0.074-0.846 0.074z"></path>
<path d="M0.775 30.907h-0.759v-6.529h3.639v0.674h-2.88v2.389h2.706v0.674h-2.706z"></path>
<path d="M51.51 15.105c0-0.433 0.205-0.649 0.616-0.649h1.103c0.222 0 0.378 0.042 0.468 0.125s0.16 0.266 0.212 0.549c0.333 2.022 1.471 3.033 3.412 3.033 0.488 0 0.945-0.058 1.373-0.175s0.759-0.246 0.994-0.387c0.235-0.141 0.453-0.27 0.654-0.387s0.348-0.175 0.443-0.175c0.197 0 0.295 0.104 0.295 0.312 0 0.175-0.098 0.399-0.295 0.674s-0.477 0.56-0.84 0.855c-0.364 0.296-0.864 0.549-1.501 0.762s-1.328 0.318-2.072 0.318c-1.54 0-2.735-0.451-3.586-1.354s-1.276-2.070-1.276-3.502zM53.909 11.623c0 0.233 0.075 0.381 0.224 0.443s0.37 0.094 0.661 0.094c0.744 0 1.381-0.062 1.911-0.187s0.937-0.3 1.219-0.524c0.282-0.225 0.485-0.462 0.609-0.712s0.186-0.524 0.186-0.824c0-0.516-0.184-0.93-0.551-1.242s-0.958-0.468-1.77-0.468c-1.274 0-2.472 0.391-3.592 1.173-0.334 0.242-0.543 0.362-0.629 0.362-0.146 0-0.218-0.079-0.218-0.237 0-0.208 0.124-0.462 0.372-0.761 0.462-0.574 0.988-1.045 1.578-1.411s1.129-0.612 1.616-0.737c0.488-0.125 0.97-0.187 1.45-0.187 0.616 0 1.172 0.063 1.668 0.187s0.937 0.318 1.321 0.581c0.385 0.262 0.684 0.62 0.898 1.074s0.321 0.984 0.321 1.592c0 1.298-0.635 2.299-1.905 3.002s-3.004 1.055-5.202 1.055c-0.616 0-1.313-0.033-2.091-0.1-0.385-0.025-0.577-0.208-0.577-0.549 0-0.924 0.137-1.617 0.411-2.078s0.628-0.818 1.065-1.067c0.427-0.241 0.753-0.362 0.975-0.362 0.205 0 0.308 0.125 0.308 0.375 0 0.1-0.043 0.343-0.128 0.73s-0.128 0.647-0.128 0.78z"></path>
<path d="M46.34 19.162v-17.202c0-0.449 0.21-0.822 0.629-1.117s0.829-0.443 1.231-0.443c0.299 0 0.449 0.179 0.449 0.536v17.202c0 0.458-0.21 0.832-0.629 1.124s-0.83 0.437-1.232 0.437c-0.299 0-0.449-0.179-0.449-0.537z"></path>
<path d="M37.898 6.404c1.95 0 3.385 0.56 4.304 1.679s1.379 2.77 1.379 4.95c0 0.674-0.088 1.396-0.263 2.166s-0.412 1.454-0.712 2.054c-0.325 0.633-0.723 1.169-1.193 1.61s-0.851 0.662-1.142 0.662c-0.18 0-0.27-0.079-0.27-0.237 0-0.050 0.030-0.117 0.090-0.2s0.141-0.21 0.244-0.381c0.103-0.17 0.192-0.368 0.269-0.593 0.351-0.932 0.526-2.251 0.526-3.957 0-0.94-0.066-1.758-0.199-2.453s-0.351-1.313-0.654-1.854c-0.304-0.541-0.725-0.951-1.264-1.229s-1.197-0.418-1.975-0.418c-1.078 0-2.19 0.383-3.336 1.148-0.043 0.033-0.107 0.077-0.192 0.131s-0.152 0.098-0.199 0.131c-0.047 0.033-0.096 0.062-0.148 0.088s-0.094 0.037-0.128 0.037c-0.12 0-0.18-0.071-0.18-0.212 0-0.091 0.049-0.225 0.148-0.4s0.182-0.304 0.25-0.387c1.249-1.556 2.797-2.334 4.644-2.334zM34.768 12.684c0 0.583 0.013 1.082 0.039 1.498s0.075 0.849 0.148 1.298c0.072 0.449 0.184 0.824 0.333 1.124s0.338 0.574 0.565 0.824c0.226 0.249 0.515 0.435 0.866 0.555s0.761 0.181 1.232 0.181c0.402 0 0.755-0.054 1.058-0.162s0.477-0.162 0.52-0.162c0.18 0 0.269 0.092 0.269 0.274 0 0.375-0.276 0.776-0.827 1.205s-1.23 0.643-2.033 0.643c-0.744 0-1.392-0.121-1.944-0.362s-0.994-0.557-1.328-0.949c-0.333-0.391-0.601-0.882-0.802-1.473s-0.336-1.186-0.404-1.785c-0.069-0.599-0.103-1.277-0.103-2.035 0-0.424 0.043-0.872 0.128-1.342s0.201-0.83 0.346-1.080c0.18-0.3 0.468-0.574 0.866-0.824s0.738-0.375 1.020-0.375c0.214 0 0.321 0.125 0.321 0.375 0 0.042-0.045 0.362-0.135 0.961s-0.135 1.136-0.135 1.61z"></path>
<path d="M19.887 19.162v-6.716c0-0.466 0.115-0.824 0.346-1.074 0.231-0.258 0.505-0.489 0.821-0.693s0.565-0.306 0.744-0.306c0.265 0 0.398 0.179 0.398 0.537v7.103c0 0.374-0.077 0.657-0.231 0.849-0.214 0.25-0.475 0.452-0.782 0.606s-0.59 0.231-0.847 0.231c-0.299 0-0.449-0.179-0.449-0.537zM12.472 19.162v-6.716c0-0.474 0.115-0.832 0.346-1.074 0.239-0.266 0.513-0.499 0.821-0.699s0.556-0.3 0.744-0.3c0.265 0 0.398 0.179 0.398 0.537v7.178c0 0.45-0.212 0.83-0.635 1.142s-0.832 0.468-1.225 0.468c-0.299 0-0.449-0.179-0.449-0.537zM20.977 7.653c0.103 0.092 0.188 0.162 0.256 0.212s0.13 0.083 0.186 0.1c0.055 0.017 0.122 0.025 0.199 0.025 0.205 0 0.599-0.179 1.18-0.537 1.129-0.699 2.121-1.049 2.976-1.049 1.334 0 2.328 0.41 2.983 1.23s0.981 2.174 0.981 4.063v6.317c0 0.449-0.212 0.842-0.635 1.179s-0.827 0.506-1.212 0.506c-0.299 0-0.449-0.179-0.449-0.537v-4.931c0-0.549-0.004-0.999-0.013-1.348s-0.025-0.741-0.051-1.174c-0.026-0.433-0.064-0.782-0.116-1.049s-0.122-0.549-0.212-0.849c-0.090-0.3-0.203-0.535-0.34-0.705s-0.302-0.333-0.494-0.487c-0.192-0.154-0.419-0.262-0.68-0.325s-0.558-0.093-0.892-0.093c-0.599 0-1.185 0.156-1.757 0.468s-1.364 0.855-2.373 1.629c-0.265 0.192-0.458 0.287-0.577 0.287-0.103 0-0.192-0.083-0.269-0.25-0.034-0.075-0.069-0.175-0.103-0.299-0.188-0.632-0.445-1.097-0.77-1.392s-0.812-0.443-1.462-0.443c-0.505 0-1.063 0.146-1.674 0.437s-1.375 0.782-2.29 1.473c-0.282 0.208-0.492 0.312-0.629 0.312-0.18 0-0.269-0.133-0.269-0.4v-2.047c0-0.441 0.214-0.813 0.641-1.117s0.838-0.456 1.232-0.456c0.299 0 0.449 0.179 0.449 0.537v0.312c0 0.291 0.064 0.437 0.192 0.437 0.086 0 0.257-0.079 0.513-0.237 1.086-0.699 2.031-1.049 2.835-1.049 0.479 0 0.883 0.058 1.212 0.175s0.806 0.474 1.431 1.074z"></path>
<path d="M0.015 19.038v-6.154c0-0.3 0.105-0.497 0.314-0.593s0.537-0.144 0.982-0.144c0.479 0 0.812 0.048 1 0.144s0.282 0.293 0.282 0.593v4.132c0 0.341 0.175 0.512 0.526 0.512h6.273c0.368 0 0.552 0.129 0.552 0.387 0 0.117-0.086 0.331-0.257 0.643s-0.372 0.568-0.603 0.768c-0.197 0.167-0.513 0.25-0.949 0.25h-7.672c-0.299 0-0.449-0.179-0.449-0.537zM0.015 10.886v-5.281c0-0.3 0.105-0.499 0.314-0.599s0.537-0.15 0.982-0.15c0.479 0 0.812 0.048 1 0.144s0.282 0.297 0.282 0.605v3.233c0 0.341 0.175 0.512 0.526 0.512h5.221c0.368 0 0.552 0.129 0.552 0.387 0 0.117-0.086 0.327-0.257 0.63s-0.372 0.56-0.603 0.768c-0.197 0.175-0.513 0.262-0.949 0.262h-6.543c-0.351 0-0.526-0.17-0.526-0.512zM2.221 2.060h6.915c0.368 0 0.552 0.129 0.552 0.387 0 0.117-0.086 0.327-0.257 0.63s-0.377 0.56-0.616 0.768c-0.197 0.175-0.509 0.262-0.936 0.262h-7.364c-0.128 0-0.222-0.006-0.282-0.019s-0.113-0.048-0.16-0.106c-0.047-0.058-0.071-0.141-0.071-0.25 0-0.308 0.25-0.664 0.75-1.067s0.99-0.605 1.469-0.605z"></path>
</symbol>
<symbol id="icon-audi" viewBox="0 0 32 32">
<path d="M26.464 10.464c-1.323 0-2.536 0.464-3.488 1.237-0.952-0.773-2.165-1.237-3.488-1.237s-2.536 0.464-3.488 1.237c-0.952-0.773-2.165-1.237-3.488-1.237s-2.536 0.464-3.488 1.237c-0.952-0.773-2.165-1.237-3.488-1.237-3.057 0-5.536 2.479-5.536 5.536s2.479 5.536 5.536 5.536c1.323 0 2.536-0.464 3.488-1.237 0.952 0.773 2.165 1.237 3.488 1.237s2.536-0.464 3.488-1.237c0.952 0.773 2.165 1.237 3.488 1.237s2.536-0.464 3.488-1.237c0.952 0.773 2.165 1.237 3.488 1.237 3.057 0 5.536-2.479 5.536-5.536s-2.479-5.536-5.536-5.536zM22.976 18.488c-0.501-0.701-0.797-1.56-0.797-2.488s0.296-1.787 0.797-2.488c0.501 0.701 0.797 1.56 0.797 2.488s-0.296 1.787-0.797 2.488zM16 18.488c-0.501-0.701-0.797-1.56-0.797-2.488s0.296-1.787 0.797-2.488c0.501 0.701 0.797 1.56 0.797 2.488s-0.296 1.787-0.797 2.488zM9.024 18.488c-0.501-0.701-0.797-1.56-0.797-2.488s0.296-1.787 0.797-2.488c0.501 0.701 0.797 1.56 0.797 2.488s-0.296 1.787-0.797 2.488zM1.251 16c0-2.367 1.919-4.285 4.285-4.285 0.981 0 1.885 0.331 2.608 0.887-0.731 0.937-1.168 2.117-1.168 3.399s0.437 2.461 1.168 3.399c-0.723 0.555-1.627 0.887-2.608 0.887-2.367 0-4.285-1.919-4.285-4.285zM9.904 19.399c0.731-0.937 1.168-2.117 1.168-3.399s-0.437-2.461-1.168-3.399c0.723-0.555 1.627-0.887 2.608-0.887s1.885 0.331 2.608 0.887c-0.732 0.939-1.168 2.117-1.168 3.399s0.437 2.461 1.168 3.399c-0.723 0.555-1.627 0.887-2.608 0.887s-1.885-0.331-2.608-0.887zM16.88 19.399c0.732-0.939 1.168-2.117 1.168-3.399s-0.437-2.461-1.168-3.4c0.723-0.555 1.627-0.887 2.608-0.887s1.885 0.331 2.608 0.887c-0.732 0.939-1.168 2.117-1.168 3.399s0.437 2.461 1.168 3.399c-0.723 0.555-1.627 0.887-2.608 0.887-0.981 0.001-1.885-0.329-2.608-0.885zM26.464 20.285c-0.981 0-1.885-0.331-2.608-0.887 0.731-0.939 1.168-2.117 1.168-3.399s-0.437-2.461-1.168-3.399c0.723-0.555 1.627-0.887 2.608-0.887 2.367 0 4.285 1.919 4.285 4.285s-1.919 4.285-4.285 4.285z"></path>
</symbol>
<symbol id="icon-volkswagen" viewBox="0 0 32 32">
<path d="M16 0c-8.853 0-16 7.147-16 16s7.147 16 16 16 16-7.147 16-16-7.147-16-16-16zM16 1.88c1.6 0 3.147 0.293 4.573 0.787l-4.4 9.507c-0.053 0.053-0.053 0.173-0.173 0.173s-0.12-0.12-0.173-0.173l-4.4-9.507c1.427-0.493 2.973-0.773 4.573-0.773zM9.2 3.653l5.093 10.973c0.107 0.227 0.227 0.293 0.373 0.293h2.667c0.16 0 0.267-0.067 0.387-0.293l5.027-10.973c2.107 1.2 3.92 2.92 5.2 4.973l-7.147 13.827c-0.053 0.12-0.133 0.173-0.173 0.173-0.107 0-0.107-0.107-0.173-0.173l-2.733-6.053c-0.12-0.227-0.227-0.28-0.387-0.28h-2.667c-0.147 0-0.267 0.053-0.387 0.28l-2.733 6.053c-0.067 0.067-0.053 0.173-0.173 0.173s-0.12-0.107-0.173-0.173l-7.2-13.827c1.253-2.053 3.093-3.773 5.2-4.973zM2.747 11.373l8.227 16c0.107 0.227 0.227 0.4 0.52 0.4 0.28 0 0.387-0.173 0.507-0.4l3.827-8.52c0.053-0.107 0.12-0.187 0.173-0.187 0.12 0 0.12 0.133 0.173 0.187l3.88 8.52c0.12 0.227 0.227 0.4 0.52 0.4 0.28 0 0.4-0.173 0.507-0.4l8.253-16c0.493 1.427 0.787 2.973 0.787 4.627-0.067 7.72-6.4 14.12-14.12 14.12s-14.053-6.4-14.053-14.12c0-1.6 0.28-3.133 0.8-4.627z"></path>
</symbol>
</defs>
</svg>
